<svg width="612" height="425" viewBox="0 0 612 455" fill="none" xmlns="http://www.w3.org/2000/svg">
<g clip-path="url(#clip0_186_3579)">
<rect width="612" height="455" fill="#030202"/>
<circle cx="30" cy="30" r="30" fill="#D9D9D9"/>
<circle cx="30" cy="109" r="30" fill="#D9D9D9"/>
<circle cx="30" cy="188" r="30" fill="#D9D9D9"/>
<circle cx="30" cy="267" r="30" fill="#D9D9D9"/>
<circle cx="30" cy="346" r="30" fill="#8FB6CF"/>
<path d="M30 326C23.1104 326 17.5 329.903 17.5 334.696V337.304H12.5C11.8115 337.304 11.25 337.695 11.25 338.174V339.913H10V341.652H11.25V357.304C11.25 357.399 11.2695 357.491 11.3135 357.579L12.4023 359.845L10.1318 363.001C10.0439 363.123 10 363.255 10 363.391V365.13C10 365.609 10.5615 366 11.25 366H17.5C18.1885 366 18.75 365.609 18.75 365.13V357.304H19.3311L21.46 359.526C21.6895 359.767 22.0801 359.913 22.5 359.913H37.5C37.9199 359.913 38.3105 359.767 38.54 359.526L40.6689 357.304H41.25V365.13C41.25 365.609 41.8115 366 42.5 366H48.75C49.4385 366 50 365.609 50 365.13V363.391C50 363.255 49.9561 363.123 49.8682 363.001L47.5977 359.845L48.6865 357.579C48.7305 357.491 48.75 357.399 48.75 357.304V341.652H50V339.913H48.75V338.174C48.75 337.695 48.1885 337.304 47.5 337.304H42.5V334.696C42.5 329.903 36.8896 326 30 326ZM30 327.739C35.5371 327.739 40 330.844 40 334.696V337.304H33.75V332.087C33.75 331.608 33.1885 331.217 32.5 331.217H27.5C26.8115 331.217 26.25 331.608 26.25 332.087V333.826H20.083C20.6982 330.389 24.8877 327.739 30 327.739ZM28.75 332.957H31.25V337.304H28.75V332.957ZM36.25 334.696C35.5615 334.696 35 335.086 35 335.565C35 336.044 35.5615 336.435 36.25 336.435C36.9385 336.435 37.5 336.044 37.5 335.565C37.5 335.086 36.9385 334.696 36.25 334.696ZM20 335.565H26.25V337.304H20V335.565ZM13.75 339.043H16.25V359.043H14.6484L13.75 357.165V339.043ZM18.75 339.043H41.25V355.565H40.2148C40.1416 355.558 40.0732 355.552 40 355.552V353.826H37.5V355.565H33.75V345.13C33.75 344.651 33.1885 344.261 32.5 344.261H27.5C26.8115 344.261 26.25 344.651 26.25 345.13V355.565H20.1709C20.1074 355.558 20.0488 355.555 19.9854 355.555C19.9268 355.555 19.873 355.558 19.8145 355.565H18.75V339.043ZM43.75 339.043H46.25V357.165L45.3516 359.043H43.75V339.043ZM21.25 340.783V342.522H38.75V340.783H21.25ZM28.75 346H31.25V355.565H28.75V346ZM22.3389 357.304H37.6611L36.8311 358.174H23.1689L22.3389 357.304ZM14.5215 360.783H16.25V364.261H12.5V363.595L14.5215 360.783ZM43.75 360.783H45.4785L47.5 363.595V364.261H43.75V360.783Z" fill="black"/>
<circle cx="30" cy="425" r="30" fill="#F47070"/>
<path d="M24.1495 405C17.8519 405 12.7273 409.907 12.7273 415.936V417.431C12.1884 417.735 11.8182 418.292 11.8182 418.927V426.76V426.934C10.6936 427.836 10 429.16 10 430.662C10 432.056 10.5806 433.325 11.5288 434.212L13.9684 436.651C13.4629 437.476 13.4286 438.542 14.0199 439.398L15.142 441.024C15.1438 441.026 15.1456 441.028 15.1474 441.03C16.1475 442.577 17.2258 443.612 18.4961 444.223C19.7686 444.835 21.1664 445 22.7468 445H25.2024C26.8341 445 28.1818 443.722 28.1818 442.161C28.1819 442.109 28.1772 442.057 28.1676 442.006C28.1775 441.954 28.1822 441.9 28.1818 441.846V442.161V443.298C28.1801 443.414 28.2024 443.528 28.2473 443.635C28.2922 443.742 28.3589 443.84 28.4435 443.922C28.5281 444.004 28.6289 444.069 28.74 444.114C28.8512 444.158 28.9704 444.181 29.0909 444.181C29.2114 444.181 29.3307 444.158 29.4418 444.114C29.5529 444.069 29.6537 444.004 29.7383 443.922C29.8229 443.84 29.8896 443.742 29.9345 443.635C29.9794 443.528 30.0017 443.414 30 443.298C29.9983 443.414 30.0206 443.528 30.0655 443.635C30.1104 443.742 30.1771 443.84 30.2617 443.922C30.3463 444.004 30.4471 444.069 30.5582 444.114C30.6693 444.158 30.7886 444.181 30.9091 444.181C31.0296 444.181 31.1488 444.158 31.26 444.114C31.3711 444.069 31.4719 444.004 31.5565 443.922C31.6411 443.84 31.7078 443.742 31.7527 443.635C31.7976 443.528 31.8199 443.414 31.8182 443.298V442.178C31.8282 443.731 33.1702 445 34.7958 445H37.2514C38.8319 445 40.2296 444.835 41.5021 444.223C42.7724 443.612 43.8507 442.577 44.8509 441.03L45.9783 439.398C46.5684 438.542 46.5341 437.477 46.0298 436.653L48.4712 434.21C49.4194 433.324 50 432.055 50 430.66C50 429.158 49.3064 427.835 48.1818 426.932V425.02V418.927C48.1818 418.292 47.8116 417.735 47.2727 417.431V415.936C47.2727 409.907 42.1481 405 35.8505 405H29.0909H24.1495ZM24.1495 406.741H29.0909H35.8505C40.3597 406.741 44.1183 409.7 45.158 413.704H14.842C15.8817 409.7 19.6403 406.741 24.1495 406.741ZM14.5721 415.445H45.4279C45.4369 415.609 45.4545 415.77 45.4545 415.936V417.186H30H14.5455V415.936C14.5455 415.77 14.5631 415.609 14.5721 415.445ZM13.6364 418.927H14.5455H30H46.3636V426.76V427.216C46.3636 427.366 46.4041 427.514 46.4812 427.645C46.5584 427.775 46.6696 427.885 46.804 427.962C47.6555 428.452 48.1818 429.422 48.1818 430.66C48.1818 431.592 47.7936 432.412 47.2017 432.965C47.1945 432.972 47.1874 432.979 47.1804 432.986L44.6804 435.487L33.9968 427.313C32.888 426.465 31.5122 425.896 30.0302 425.89H30.0284H30H29.9716H29.9698C28.4887 425.897 27.1101 426.464 26.0014 427.313L15.3196 435.487L12.8196 432.986C12.8126 432.979 12.8055 432.972 12.7983 432.965C12.2064 432.412 11.8182 431.593 11.8182 430.662C11.8182 429.424 12.3445 428.454 13.196 427.964C13.3304 427.887 13.4416 427.777 13.5188 427.646C13.5959 427.516 13.6365 427.368 13.6364 427.218V425.02V418.927ZM16.3086 420.667C15.6313 420.667 15.207 421.369 15.5398 421.936L17.9972 426.329C18.2344 426.732 18.764 426.879 19.1886 426.657L26.7915 422.264C27.597 421.843 27.2853 420.667 26.369 420.667H16.3086ZM33.6062 420.667C32.6898 420.667 32.3799 421.843 33.1854 422.264L40.7866 426.657C41.2102 426.879 41.7407 426.732 41.978 426.329L44.4371 421.936C44.7699 421.369 44.3429 420.667 43.6665 420.667H33.6062ZM29.9734 427.631H30H30.0266C31.0217 427.636 32.0193 428.028 32.8622 428.673L37.6651 432.348L36.0618 431.619L32.9492 430.205C32.0282 429.786 31.0195 429.569 29.9982 429.569C28.9776 429.569 27.9713 429.785 27.049 430.205L22.3384 432.345L27.1378 428.673C27.9786 428.029 28.978 427.637 29.9734 427.631ZM14.8491 428.62C14.6129 428.627 14.3887 428.721 14.2241 428.884L13.5813 429.499C13.4941 429.579 13.4244 429.675 13.3764 429.782C13.3285 429.888 13.3031 430.002 13.3019 430.118C13.3006 430.234 13.3236 430.349 13.3693 430.456C13.415 430.563 13.4826 430.661 13.5681 430.743C13.6536 430.824 13.7554 430.889 13.8674 430.933C13.9793 430.977 14.0993 430.999 14.2202 430.998C14.3412 430.996 14.4607 430.972 14.5717 430.926C14.6827 430.88 14.7831 430.813 14.8668 430.73L15.5096 430.115C15.641 429.992 15.7307 429.835 15.767 429.663C15.8033 429.491 15.7846 429.313 15.7132 429.151C15.6418 428.99 15.5211 428.852 15.3669 428.758C15.2127 428.663 15.0322 428.615 14.8491 428.62ZM45.1225 428.62C44.9418 428.621 44.7653 428.673 44.6156 428.769C44.4659 428.866 44.3497 429.004 44.2818 429.164C44.214 429.324 44.1976 429.5 44.2348 429.67C44.2719 429.839 44.3609 429.994 44.4904 430.115L45.1332 430.73C45.2169 430.813 45.3173 430.88 45.4283 430.926C45.5393 430.972 45.6588 430.996 45.7798 430.998C45.9007 430.999 46.0207 430.977 46.1326 430.933C46.2446 430.889 46.3464 430.824 46.4319 430.743C46.5174 430.661 46.585 430.563 46.6307 430.456C46.6764 430.349 46.6993 430.234 46.6981 430.118C46.6969 430.002 46.6715 429.888 46.6236 429.782C46.5756 429.675 46.5059 429.579 46.4187 429.499L45.7759 428.884C45.691 428.8 45.5894 428.734 45.4772 428.688C45.3649 428.643 45.2443 428.62 45.1225 428.62ZM16.6673 430.361C16.4311 430.368 16.2069 430.462 16.0423 430.625L15.3995 431.24C15.3123 431.32 15.2426 431.416 15.1946 431.523C15.1466 431.629 15.1213 431.743 15.1201 431.859C15.1188 431.975 15.1417 432.09 15.1875 432.197C15.2332 432.304 15.3008 432.402 15.3863 432.483C15.4718 432.565 15.5736 432.63 15.6855 432.674C15.7975 432.718 15.9175 432.74 16.0384 432.738C16.1594 432.737 16.2789 432.713 16.3899 432.667C16.5009 432.621 16.6012 432.554 16.685 432.471L17.3278 431.855C17.4591 431.733 17.5489 431.576 17.5852 431.404C17.6215 431.232 17.6027 431.053 17.5313 430.892C17.4599 430.73 17.3392 430.593 17.1851 430.499C17.0309 430.404 16.8504 430.356 16.6673 430.361ZM43.3043 430.361C43.1236 430.361 42.9472 430.413 42.7974 430.51C42.6477 430.607 42.5315 430.744 42.4637 430.905C42.3958 431.065 42.3794 431.241 42.4166 431.411C42.4537 431.58 42.5427 431.735 42.6722 431.855L43.315 432.471C43.3988 432.554 43.4991 432.621 43.6101 432.667C43.7211 432.713 43.8406 432.737 43.9616 432.738C44.0825 432.74 44.2025 432.718 44.3145 432.674C44.4264 432.63 44.5282 432.565 44.6137 432.483C44.6992 432.402 44.7668 432.304 44.8125 432.197C44.8583 432.09 44.8812 431.975 44.8799 431.859C44.8787 431.743 44.8534 431.629 44.8054 431.523C44.7574 431.416 44.6877 431.32 44.6005 431.24L43.9577 430.625C43.8728 430.541 43.7712 430.475 43.659 430.429C43.5467 430.384 43.4261 430.361 43.3043 430.361ZM29.9982 431.31C30.7497 431.31 31.4926 431.47 32.1697 431.777L35.2823 433.192L44.0945 437.197C44.6074 437.43 44.7705 437.992 44.462 438.44L43.3168 440.095L43.3097 440.107C42.4213 441.483 41.599 442.228 40.6854 442.668C40.5546 442.73 40.4114 442.774 40.2734 442.826C40.6578 442.183 40.8949 441.446 40.8949 440.655C40.8949 438.276 38.905 436.308 36.4471 436.308H34.517C34.0117 436.308 33.6222 435.935 33.6222 435.451C33.6222 434.027 32.3965 432.853 30.9091 432.853H29.0767C27.5893 432.853 26.3636 434.027 26.3636 435.451C26.3636 435.935 25.9741 436.308 25.4688 436.308H23.5387C21.0801 436.308 19.0909 438.276 19.0909 440.655C19.0909 441.444 19.3263 442.179 19.7088 442.821C19.5764 442.771 19.4387 442.728 19.3129 442.668C18.3992 442.228 17.5769 441.483 16.6886 440.107L16.6815 440.095L15.5362 438.438C15.2271 437.99 15.3898 437.43 15.9038 437.197L16.0724 437.12L16.0813 437.132L16.1328 437.093L27.8285 431.777C28.5062 431.469 29.2461 431.31 29.9982 431.31ZM29.0767 434.594H30.9091C31.4144 434.594 31.804 434.967 31.804 435.451C31.804 436.875 33.0296 438.049 34.517 438.049H36.4471C37.8965 438.049 39.0767 439.193 39.0767 440.655C39.0767 442.117 37.8976 443.259 36.4471 443.259H34.7958C34.1402 443.259 33.6346 442.774 33.6346 442.161C33.635 442.111 33.6308 442.061 33.6222 442.011C33.6324 441.957 33.6371 441.902 33.6364 441.846V439.528C33.6381 439.412 33.6158 439.298 33.5709 439.191C33.526 439.084 33.4593 438.986 33.3747 438.904C33.2901 438.822 33.1893 438.757 33.0782 438.712C32.967 438.668 32.8478 438.645 32.7273 438.645C32.6068 438.645 32.4875 438.668 32.3764 438.712C32.2652 438.757 32.1644 438.822 32.0799 438.904C31.9953 438.986 31.9286 439.084 31.8837 439.191C31.8387 439.298 31.8165 439.412 31.8182 439.528V438.076C31.8199 437.96 31.7976 437.846 31.7527 437.739C31.7078 437.632 31.6411 437.534 31.5565 437.452C31.4719 437.37 31.3711 437.305 31.26 437.26C31.1488 437.216 31.0296 437.193 30.9091 437.193C30.7886 437.193 30.6693 437.216 30.5582 437.26C30.4471 437.305 30.3463 437.37 30.2617 437.452C30.1771 437.534 30.1104 437.632 30.0655 437.739C30.0206 437.846 29.9983 437.96 30 438.076C30.0017 437.959 29.9789 437.844 29.9331 437.736C29.8872 437.628 29.8193 437.53 29.7332 437.448C29.6471 437.365 29.5446 437.301 29.4319 437.257C29.3191 437.213 29.1983 437.192 29.0767 437.193C28.8359 437.197 28.6064 437.292 28.4387 437.457C28.2709 437.623 28.1785 437.845 28.1818 438.076V439.528C28.1837 439.411 28.1611 439.295 28.1154 439.187C28.0697 439.079 28.0018 438.981 27.9156 438.898C27.8295 438.816 27.727 438.751 27.6141 438.707C27.5012 438.663 27.3803 438.642 27.2585 438.644C27.1391 438.645 27.0213 438.67 26.9117 438.715C26.8021 438.76 26.703 438.826 26.6199 438.908C26.5368 438.99 26.4714 439.087 26.4274 439.193C26.3834 439.3 26.3618 439.413 26.3636 439.528V441.846C26.3635 441.898 26.3683 441.95 26.3778 442.001C26.368 442.054 26.3632 442.107 26.3636 442.161C26.3636 442.774 25.858 443.259 25.2024 443.259H23.5387C22.0893 443.259 20.9091 442.116 20.9091 440.655C20.9091 439.193 22.0882 438.049 23.5387 438.049H25.4688C26.9562 438.049 28.1818 436.875 28.1818 435.451C28.1818 434.967 28.5714 434.594 29.0767 434.594ZM23.6843 439.4C23.3226 439.4 22.9758 439.538 22.7201 439.783C22.4643 440.027 22.3207 440.359 22.3207 440.706C22.3207 441.052 22.4643 441.384 22.7201 441.629C22.9758 441.874 23.3226 442.011 23.6843 442.011C24.046 442.011 24.3928 441.874 24.6485 441.629C24.9043 441.384 25.0479 441.052 25.0479 440.706C25.0479 440.359 24.9043 440.027 24.6485 439.783C24.3928 439.538 24.046 439.4 23.6843 439.4ZM36.3015 439.4C35.9398 439.4 35.593 439.538 35.3373 439.783C35.0815 440.027 34.9379 440.359 34.9379 440.706C34.9379 441.052 35.0815 441.384 35.3373 441.629C35.593 441.874 35.9398 442.011 36.3015 442.011C36.6632 442.011 37.01 441.874 37.2657 441.629C37.5215 441.384 37.6651 441.052 37.6651 440.706C37.6651 440.359 37.5215 440.027 37.2657 439.783C37.01 439.538 36.6632 439.4 36.3015 439.4ZM31.8182 441.846C31.8178 441.897 31.822 441.947 31.8306 441.996C31.8243 442.03 31.8202 442.065 31.8182 442.1V441.846Z" fill="black"/>
<circle cx="122" cy="30" r="30" fill="#D9D9D9"/>
<circle cx="122" cy="109" r="30" fill="#D9D9D9"/>
<circle cx="122" cy="188" r="30" fill="#D9D9D9"/>
<circle cx="122" cy="267" r="30" fill="#D9D9D9"/>
<circle cx="122" cy="346" r="30" fill="#D9D9D9"/>
<circle cx="122" cy="425" r="30" fill="#8FB6CF"/>
<path d="M122 405C115.11 405 109.5 408.903 109.5 413.696V416.304H104.5C103.812 416.304 103.25 416.695 103.25 417.174V418.913H102V420.652H103.25V436.304C103.25 436.399 103.27 436.491 103.313 436.579L104.402 438.845L102.132 442.001C102.044 442.123 102 442.255 102 442.391V444.13C102 444.609 102.562 445 103.25 445H109.5C110.188 445 110.75 444.609 110.75 444.13V436.304H111.331L113.46 438.526C113.689 438.767 114.08 438.913 114.5 438.913H129.5C129.92 438.913 130.311 438.767 130.54 438.526L132.669 436.304H133.25V444.13C133.25 444.609 133.812 445 134.5 445H140.75C141.438 445 142 444.609 142 444.13V442.391C142 442.255 141.956 442.123 141.868 442.001L139.598 438.845L140.687 436.579C140.73 436.491 140.75 436.399 140.75 436.304V420.652H142V418.913H140.75V417.174C140.75 416.695 140.188 416.304 139.5 416.304H134.5V413.696C134.5 408.903 128.89 405 122 405ZM122 406.739C127.537 406.739 132 409.844 132 413.696V416.304H125.75V411.087C125.75 410.608 125.188 410.217 124.5 410.217H119.5C118.812 410.217 118.25 410.608 118.25 411.087V412.826H112.083C112.698 409.389 116.888 406.739 122 406.739ZM120.75 411.957H123.25V416.304H120.75V411.957ZM128.25 413.696C127.562 413.696 127 414.086 127 414.565C127 415.044 127.562 415.435 128.25 415.435C128.938 415.435 129.5 415.044 129.5 414.565C129.5 414.086 128.938 413.696 128.25 413.696ZM112 414.565H118.25V416.304H112V414.565ZM105.75 418.043H108.25V438.043H106.648L105.75 436.165V418.043ZM110.75 418.043H133.25V434.565H132.215C132.142 434.558 132.073 434.552 132 434.552V432.826H129.5V434.565H125.75V424.13C125.75 423.651 125.188 423.261 124.5 423.261H119.5C118.812 423.261 118.25 423.651 118.25 424.13V434.565H112.171C112.107 434.558 112.049 434.555 111.985 434.555C111.927 434.555 111.873 434.558 111.814 434.565H110.75V418.043ZM135.75 418.043H138.25V436.165L137.352 438.043H135.75V418.043ZM113.25 419.783V421.522H130.75V419.783H113.25ZM120.75 425H123.25V434.565H120.75V425ZM114.339 436.304H129.661L128.831 437.174H115.169L114.339 436.304ZM106.521 439.783H108.25V443.261H104.5V442.595L106.521 439.783ZM135.75 439.783H137.479L139.5 442.595V443.261H135.75V439.783Z" fill="black"/>
<circle cx="214" cy="30" r="30" fill="#D9D9D9"/>
<circle cx="214" cy="109" r="30" fill="#D9D9D9"/>
<circle cx="214" cy="188" r="30" fill="#D9D9D9"/>
<circle cx="214" cy="267" r="30" fill="#D9D9D9"/>
<circle cx="214" cy="346" r="30" fill="#D9D9D9"/>
<circle cx="214" cy="425" r="30" fill="#F47070"/>
<path d="M208.15 405C201.852 405 196.727 409.907 196.727 415.936V417.431C196.188 417.735 195.818 418.292 195.818 418.927V426.76V426.934C194.694 427.836 194 429.16 194 430.662C194 432.056 194.581 433.325 195.529 434.212L197.968 436.651C197.463 437.476 197.429 438.542 198.02 439.398L199.142 441.024C199.144 441.026 199.146 441.028 199.147 441.03C200.148 442.577 201.226 443.612 202.496 444.223C203.769 444.835 205.166 445 206.747 445H209.202C210.834 445 212.182 443.722 212.182 442.161C212.182 442.109 212.177 442.057 212.168 442.006C212.177 441.954 212.182 441.9 212.182 441.846V442.161V443.298C212.18 443.414 212.202 443.528 212.247 443.635C212.292 443.742 212.359 443.84 212.443 443.922C212.528 444.004 212.629 444.069 212.74 444.114C212.851 444.158 212.97 444.181 213.091 444.181C213.211 444.181 213.331 444.158 213.442 444.114C213.553 444.069 213.654 444.004 213.738 443.922C213.823 443.84 213.89 443.742 213.935 443.635C213.979 443.528 214.002 443.414 214 443.298C213.998 443.414 214.021 443.528 214.065 443.635C214.11 443.742 214.177 443.84 214.262 443.922C214.346 444.004 214.447 444.069 214.558 444.114C214.669 444.158 214.789 444.181 214.909 444.181C215.03 444.181 215.149 444.158 215.26 444.114C215.371 444.069 215.472 444.004 215.557 443.922C215.641 443.84 215.708 443.742 215.753 443.635C215.798 443.528 215.82 443.414 215.818 443.298V442.178C215.828 443.731 217.17 445 218.796 445H221.251C222.832 445 224.23 444.835 225.502 444.223C226.772 443.612 227.851 442.577 228.851 441.03L229.978 439.398C230.568 438.542 230.534 437.477 230.03 436.653L232.471 434.21C233.419 433.324 234 432.055 234 430.66C234 429.158 233.306 427.835 232.182 426.932V425.02V418.927C232.182 418.292 231.812 417.735 231.273 417.431V415.936C231.273 409.907 226.148 405 219.85 405H213.091H208.15ZM208.15 406.741H213.091H219.85C224.36 406.741 228.118 409.7 229.158 413.704H198.842C199.882 409.7 203.64 406.741 208.15 406.741ZM198.572 415.445H229.428C229.437 415.609 229.455 415.77 229.455 415.936V417.186H214H198.545V415.936C198.545 415.77 198.563 415.609 198.572 415.445ZM197.636 418.927H198.545H214H230.364V426.76V427.216C230.364 427.366 230.404 427.514 230.481 427.645C230.558 427.775 230.67 427.885 230.804 427.962C231.656 428.452 232.182 429.422 232.182 430.66C232.182 431.592 231.794 432.412 231.202 432.965C231.194 432.972 231.187 432.979 231.18 432.986L228.68 435.487L217.997 427.313C216.888 426.465 215.512 425.896 214.03 425.89H214.028H214H213.972H213.97C212.489 425.897 211.11 426.464 210.001 427.313L199.32 435.487L196.82 432.986C196.813 432.979 196.806 432.972 196.798 432.965C196.206 432.412 195.818 431.593 195.818 430.662C195.818 429.424 196.344 428.454 197.196 427.964C197.33 427.887 197.442 427.777 197.519 427.646C197.596 427.516 197.636 427.368 197.636 427.218V425.02V418.927ZM200.309 420.667C199.631 420.667 199.207 421.369 199.54 421.936L201.997 426.329C202.234 426.732 202.764 426.879 203.189 426.657L210.792 422.264C211.597 421.843 211.285 420.667 210.369 420.667H200.309ZM217.606 420.667C216.69 420.667 216.38 421.843 217.185 422.264L224.787 426.657C225.21 426.879 225.741 426.732 225.978 426.329L228.437 421.936C228.77 421.369 228.343 420.667 227.667 420.667H217.606ZM213.973 427.631H214H214.027C215.022 427.636 216.019 428.028 216.862 428.673L221.665 432.348L220.062 431.619L216.949 430.205C216.028 429.786 215.019 429.569 213.998 429.569C212.978 429.569 211.971 429.785 211.049 430.205L206.338 432.345L211.138 428.673C211.979 428.029 212.978 427.637 213.973 427.631ZM198.849 428.62C198.613 428.627 198.389 428.721 198.224 428.884L197.581 429.499C197.494 429.579 197.424 429.675 197.376 429.782C197.328 429.888 197.303 430.002 197.302 430.118C197.301 430.234 197.324 430.349 197.369 430.456C197.415 430.563 197.483 430.661 197.568 430.743C197.654 430.824 197.755 430.889 197.867 430.933C197.979 430.977 198.099 430.999 198.22 430.998C198.341 430.996 198.461 430.972 198.572 430.926C198.683 430.88 198.783 430.813 198.867 430.73L199.51 430.115C199.641 429.992 199.731 429.835 199.767 429.663C199.803 429.491 199.785 429.313 199.713 429.151C199.642 428.99 199.521 428.852 199.367 428.758C199.213 428.663 199.032 428.615 198.849 428.62ZM229.123 428.62C228.942 428.621 228.765 428.673 228.616 428.769C228.466 428.866 228.35 429.004 228.282 429.164C228.214 429.324 228.198 429.5 228.235 429.67C228.272 429.839 228.361 429.994 228.49 430.115L229.133 430.73C229.217 430.813 229.317 430.88 229.428 430.926C229.539 430.972 229.659 430.996 229.78 430.998C229.901 430.999 230.021 430.977 230.133 430.933C230.245 430.889 230.346 430.824 230.432 430.743C230.517 430.661 230.585 430.563 230.631 430.456C230.676 430.349 230.699 430.234 230.698 430.118C230.697 430.002 230.672 429.888 230.624 429.782C230.576 429.675 230.506 429.579 230.419 429.499L229.776 428.884C229.691 428.8 229.589 428.734 229.477 428.688C229.365 428.643 229.244 428.62 229.123 428.62ZM200.667 430.361C200.431 430.368 200.207 430.462 200.042 430.625L199.4 431.24C199.312 431.32 199.243 431.416 199.195 431.523C199.147 431.629 199.121 431.743 199.12 431.859C199.119 431.975 199.142 432.09 199.187 432.197C199.233 432.304 199.301 432.402 199.386 432.483C199.472 432.565 199.574 432.63 199.686 432.674C199.798 432.718 199.917 432.74 200.038 432.738C200.159 432.737 200.279 432.713 200.39 432.667C200.501 432.621 200.601 432.554 200.685 432.471L201.328 431.855C201.459 431.733 201.549 431.576 201.585 431.404C201.622 431.232 201.603 431.053 201.531 430.892C201.46 430.73 201.339 430.593 201.185 430.499C201.031 430.404 200.85 430.356 200.667 430.361ZM227.304 430.361C227.124 430.361 226.947 430.413 226.797 430.51C226.648 430.607 226.531 430.744 226.464 430.905C226.396 431.065 226.379 431.241 226.417 431.411C226.454 431.58 226.543 431.735 226.672 431.855L227.315 432.471C227.399 432.554 227.499 432.621 227.61 432.667C227.721 432.713 227.841 432.737 227.962 432.738C228.083 432.74 228.202 432.718 228.314 432.674C228.426 432.63 228.528 432.565 228.614 432.483C228.699 432.402 228.767 432.304 228.813 432.197C228.858 432.09 228.881 431.975 228.88 431.859C228.879 431.743 228.853 431.629 228.805 431.523C228.757 431.416 228.688 431.32 228.6 431.24L227.958 430.625C227.873 430.541 227.771 430.475 227.659 430.429C227.547 430.384 227.426 430.361 227.304 430.361ZM213.998 431.31C214.75 431.31 215.493 431.47 216.17 431.777L219.282 433.192L228.094 437.197C228.607 437.43 228.771 437.992 228.462 438.44L227.317 440.095L227.31 440.107C226.421 441.483 225.599 442.228 224.685 442.668C224.555 442.73 224.411 442.774 224.273 442.826C224.658 442.183 224.895 441.446 224.895 440.655C224.895 438.276 222.905 436.308 220.447 436.308H218.517C218.012 436.308 217.622 435.935 217.622 435.451C217.622 434.027 216.396 432.853 214.909 432.853H213.077C211.589 432.853 210.364 434.027 210.364 435.451C210.364 435.935 209.974 436.308 209.469 436.308H207.539C205.08 436.308 203.091 438.276 203.091 440.655C203.091 441.444 203.326 442.179 203.709 442.821C203.576 442.771 203.439 442.728 203.313 442.668C202.399 442.228 201.577 441.483 200.689 440.107L200.681 440.095L199.536 438.438C199.227 437.99 199.39 437.43 199.904 437.197L200.072 437.12L200.081 437.132L200.133 437.093L211.828 431.777C212.506 431.469 213.246 431.31 213.998 431.31ZM213.077 434.594H214.909C215.414 434.594 215.804 434.967 215.804 435.451C215.804 436.875 217.03 438.049 218.517 438.049H220.447C221.896 438.049 223.077 439.193 223.077 440.655C223.077 442.117 221.898 443.259 220.447 443.259H218.796C218.14 443.259 217.635 442.774 217.635 442.161C217.635 442.111 217.631 442.061 217.622 442.011C217.632 441.957 217.637 441.902 217.636 441.846V439.528C217.638 439.412 217.616 439.298 217.571 439.191C217.526 439.084 217.459 438.986 217.375 438.904C217.29 438.822 217.189 438.757 217.078 438.712C216.967 438.668 216.848 438.645 216.727 438.645C216.607 438.645 216.488 438.668 216.376 438.712C216.265 438.757 216.164 438.822 216.08 438.904C215.995 438.986 215.929 439.084 215.884 439.191C215.839 439.298 215.816 439.412 215.818 439.528V438.076C215.82 437.96 215.798 437.846 215.753 437.739C215.708 437.632 215.641 437.534 215.557 437.452C215.472 437.37 215.371 437.305 215.26 437.26C215.149 437.216 215.03 437.193 214.909 437.193C214.789 437.193 214.669 437.216 214.558 437.26C214.447 437.305 214.346 437.37 214.262 437.452C214.177 437.534 214.11 437.632 214.065 437.739C214.021 437.846 213.998 437.96 214 438.076C214.002 437.959 213.979 437.844 213.933 437.736C213.887 437.628 213.819 437.53 213.733 437.448C213.647 437.365 213.545 437.301 213.432 437.257C213.319 437.213 213.198 437.192 213.077 437.193C212.836 437.197 212.606 437.292 212.439 437.457C212.271 437.623 212.179 437.845 212.182 438.076V439.528C212.184 439.411 212.161 439.295 212.115 439.187C212.07 439.079 212.002 438.981 211.916 438.898C211.83 438.816 211.727 438.751 211.614 438.707C211.501 438.663 211.38 438.642 211.259 438.644C211.139 438.645 211.021 438.67 210.912 438.715C210.802 438.76 210.703 438.826 210.62 438.908C210.537 438.99 210.471 439.087 210.427 439.193C210.383 439.3 210.362 439.413 210.364 439.528V441.846C210.364 441.898 210.368 441.95 210.378 442.001C210.368 442.054 210.363 442.107 210.364 442.161C210.364 442.774 209.858 443.259 209.202 443.259H207.539C206.089 443.259 204.909 442.116 204.909 440.655C204.909 439.193 206.088 438.049 207.539 438.049H209.469C210.956 438.049 212.182 436.875 212.182 435.451C212.182 434.967 212.571 434.594 213.077 434.594ZM207.684 439.4C207.323 439.4 206.976 439.538 206.72 439.783C206.464 440.027 206.321 440.359 206.321 440.706C206.321 441.052 206.464 441.384 206.72 441.629C206.976 441.874 207.323 442.011 207.684 442.011C208.046 442.011 208.393 441.874 208.649 441.629C208.904 441.384 209.048 441.052 209.048 440.706C209.048 440.359 208.904 440.027 208.649 439.783C208.393 439.538 208.046 439.4 207.684 439.4ZM220.301 439.4C219.94 439.4 219.593 439.538 219.337 439.783C219.082 440.027 218.938 440.359 218.938 440.706C218.938 441.052 219.082 441.384 219.337 441.629C219.593 441.874 219.94 442.011 220.301 442.011C220.663 442.011 221.01 441.874 221.266 441.629C221.521 441.384 221.665 441.052 221.665 440.706C221.665 440.359 221.521 440.027 221.266 439.783C221.01 439.538 220.663 439.4 220.301 439.4ZM215.818 441.846C215.818 441.897 215.822 441.947 215.831 441.996C215.824 442.03 215.82 442.065 215.818 442.1V441.846Z" fill="black"/>
<circle cx="306" cy="30" r="30" fill="#D9D9D9"/>
<circle cx="306" cy="109" r="30" fill="#D9D9D9"/>
<circle cx="306" cy="188" r="30" fill="#D9D9D9"/>
<circle cx="306" cy="267" r="30" fill="#D9D9D9"/>
<circle cx="306" cy="346" r="30" fill="#F47070"/>
<path d="M300.15 326C293.852 326 288.727 330.907 288.727 336.936V338.431C288.188 338.735 287.818 339.292 287.818 339.927V347.76V347.934C286.694 348.836 286 350.16 286 351.662C286 353.056 286.581 354.325 287.529 355.212L289.968 357.651C289.463 358.476 289.429 359.542 290.02 360.398L291.142 362.024C291.144 362.026 291.146 362.028 291.147 362.03C292.148 363.577 293.226 364.612 294.496 365.223C295.769 365.835 297.166 366 298.747 366H301.202C302.834 366 304.182 364.722 304.182 363.161C304.182 363.109 304.177 363.057 304.168 363.006C304.177 362.954 304.182 362.9 304.182 362.846V363.161V364.298C304.18 364.414 304.202 364.528 304.247 364.635C304.292 364.742 304.359 364.84 304.443 364.922C304.528 365.004 304.629 365.069 304.74 365.114C304.851 365.158 304.97 365.181 305.091 365.181C305.211 365.181 305.331 365.158 305.442 365.114C305.553 365.069 305.654 365.004 305.738 364.922C305.823 364.84 305.89 364.742 305.935 364.635C305.979 364.528 306.002 364.414 306 364.298C305.998 364.414 306.021 364.528 306.065 364.635C306.11 364.742 306.177 364.84 306.262 364.922C306.346 365.004 306.447 365.069 306.558 365.114C306.669 365.158 306.789 365.181 306.909 365.181C307.03 365.181 307.149 365.158 307.26 365.114C307.371 365.069 307.472 365.004 307.557 364.922C307.641 364.84 307.708 364.742 307.753 364.635C307.798 364.528 307.82 364.414 307.818 364.298V363.178C307.828 364.731 309.17 366 310.796 366H313.251C314.832 366 316.23 365.835 317.502 365.223C318.772 364.612 319.851 363.577 320.851 362.03L321.978 360.398C322.568 359.542 322.534 358.477 322.03 357.653L324.471 355.21C325.419 354.324 326 353.055 326 351.66C326 350.158 325.306 348.835 324.182 347.932V346.02V339.927C324.182 339.292 323.812 338.735 323.273 338.431V336.936C323.273 330.907 318.148 326 311.85 326H305.091H300.15ZM300.15 327.741H305.091H311.85C316.36 327.741 320.118 330.7 321.158 334.704H290.842C291.882 330.7 295.64 327.741 300.15 327.741ZM290.572 336.445H321.428C321.437 336.609 321.455 336.77 321.455 336.936V338.186H306H290.545V336.936C290.545 336.77 290.563 336.609 290.572 336.445ZM289.636 339.927H290.545H306H322.364V347.76V348.216C322.364 348.366 322.404 348.514 322.481 348.645C322.558 348.775 322.67 348.885 322.804 348.962C323.656 349.452 324.182 350.422 324.182 351.66C324.182 352.592 323.794 353.412 323.202 353.965C323.194 353.972 323.187 353.979 323.18 353.986L320.68 356.487L309.997 348.313C308.888 347.465 307.512 346.896 306.03 346.89H306.028H306H305.972H305.97C304.489 346.897 303.11 347.464 302.001 348.313L291.32 356.487L288.82 353.986C288.813 353.979 288.806 353.972 288.798 353.965C288.206 353.412 287.818 352.593 287.818 351.662C287.818 350.424 288.344 349.454 289.196 348.964C289.33 348.887 289.442 348.777 289.519 348.646C289.596 348.516 289.636 348.368 289.636 348.218V346.02V339.927ZM292.309 341.667C291.631 341.667 291.207 342.369 291.54 342.936L293.997 347.329C294.234 347.732 294.764 347.879 295.189 347.657L302.792 343.264C303.597 342.843 303.285 341.667 302.369 341.667H292.309ZM309.606 341.667C308.69 341.667 308.38 342.843 309.185 343.264L316.787 347.657C317.21 347.879 317.741 347.732 317.978 347.329L320.437 342.936C320.77 342.369 320.343 341.667 319.667 341.667H309.606ZM305.973 348.631H306H306.027C307.022 348.636 308.019 349.028 308.862 349.673L313.665 353.348L312.062 352.619L308.949 351.205C308.028 350.786 307.019 350.569 305.998 350.569C304.978 350.569 303.971 350.785 303.049 351.205L298.338 353.345L303.138 349.673C303.979 349.029 304.978 348.637 305.973 348.631ZM290.849 349.62C290.613 349.627 290.389 349.721 290.224 349.884L289.581 350.499C289.494 350.579 289.424 350.675 289.376 350.782C289.328 350.888 289.303 351.002 289.302 351.118C289.301 351.234 289.324 351.349 289.369 351.456C289.415 351.563 289.483 351.661 289.568 351.743C289.654 351.824 289.755 351.889 289.867 351.933C289.979 351.977 290.099 351.999 290.22 351.998C290.341 351.996 290.461 351.972 290.572 351.926C290.683 351.88 290.783 351.813 290.867 351.73L291.51 351.115C291.641 350.992 291.731 350.835 291.767 350.663C291.803 350.491 291.785 350.313 291.713 350.151C291.642 349.99 291.521 349.852 291.367 349.758C291.213 349.663 291.032 349.615 290.849 349.62ZM321.123 349.62C320.942 349.621 320.765 349.673 320.616 349.769C320.466 349.866 320.35 350.004 320.282 350.164C320.214 350.324 320.198 350.5 320.235 350.67C320.272 350.839 320.361 350.994 320.49 351.115L321.133 351.73C321.217 351.813 321.317 351.88 321.428 351.926C321.539 351.972 321.659 351.996 321.78 351.998C321.901 351.999 322.021 351.977 322.133 351.933C322.245 351.889 322.346 351.824 322.432 351.743C322.517 351.661 322.585 351.563 322.631 351.456C322.676 351.349 322.699 351.234 322.698 351.118C322.697 351.002 322.672 350.888 322.624 350.782C322.576 350.675 322.506 350.579 322.419 350.499L321.776 349.884C321.691 349.8 321.589 349.734 321.477 349.688C321.365 349.643 321.244 349.62 321.123 349.62ZM292.667 351.361C292.431 351.368 292.207 351.462 292.042 351.625L291.4 352.24C291.312 352.32 291.243 352.416 291.195 352.523C291.147 352.629 291.121 352.743 291.12 352.859C291.119 352.975 291.142 353.09 291.187 353.197C291.233 353.304 291.301 353.402 291.386 353.483C291.472 353.565 291.574 353.63 291.686 353.674C291.798 353.718 291.917 353.74 292.038 353.738C292.159 353.737 292.279 353.713 292.39 353.667C292.501 353.621 292.601 353.554 292.685 353.471L293.328 352.855C293.459 352.733 293.549 352.576 293.585 352.404C293.622 352.232 293.603 352.053 293.531 351.892C293.46 351.73 293.339 351.593 293.185 351.499C293.031 351.404 292.85 351.356 292.667 351.361ZM319.304 351.361C319.124 351.361 318.947 351.413 318.797 351.51C318.648 351.607 318.531 351.744 318.464 351.905C318.396 352.065 318.379 352.241 318.417 352.411C318.454 352.58 318.543 352.735 318.672 352.855L319.315 353.471C319.399 353.554 319.499 353.621 319.61 353.667C319.721 353.713 319.841 353.737 319.962 353.738C320.083 353.74 320.202 353.718 320.314 353.674C320.426 353.63 320.528 353.565 320.614 353.483C320.699 353.402 320.767 353.304 320.813 353.197C320.858 353.09 320.881 352.975 320.88 352.859C320.879 352.743 320.853 352.629 320.805 352.523C320.757 352.416 320.688 352.32 320.6 352.24L319.958 351.625C319.873 351.541 319.771 351.475 319.659 351.429C319.547 351.384 319.426 351.361 319.304 351.361ZM305.998 352.31C306.75 352.31 307.493 352.47 308.17 352.777L311.282 354.192L320.094 358.197C320.607 358.43 320.771 358.992 320.462 359.44L319.317 361.095L319.31 361.107C318.421 362.483 317.599 363.228 316.685 363.668C316.555 363.73 316.411 363.774 316.273 363.826C316.658 363.183 316.895 362.446 316.895 361.655C316.895 359.276 314.905 357.308 312.447 357.308H310.517C310.012 357.308 309.622 356.935 309.622 356.451C309.622 355.027 308.396 353.853 306.909 353.853H305.077C303.589 353.853 302.364 355.027 302.364 356.451C302.364 356.935 301.974 357.308 301.469 357.308H299.539C297.08 357.308 295.091 359.276 295.091 361.655C295.091 362.444 295.326 363.179 295.709 363.821C295.576 363.771 295.439 363.728 295.313 363.668C294.399 363.228 293.577 362.483 292.689 361.107L292.681 361.095L291.536 359.438C291.227 358.99 291.39 358.43 291.904 358.197L292.072 358.12L292.081 358.132L292.133 358.093L303.828 352.777C304.506 352.469 305.246 352.31 305.998 352.31ZM305.077 355.594H306.909C307.414 355.594 307.804 355.967 307.804 356.451C307.804 357.875 309.03 359.049 310.517 359.049H312.447C313.896 359.049 315.077 360.193 315.077 361.655C315.077 363.117 313.898 364.259 312.447 364.259H310.796C310.14 364.259 309.635 363.774 309.635 363.161C309.635 363.111 309.631 363.061 309.622 363.011C309.632 362.957 309.637 362.902 309.636 362.846V360.528C309.638 360.412 309.616 360.298 309.571 360.191C309.526 360.084 309.459 359.986 309.375 359.904C309.29 359.822 309.189 359.757 309.078 359.712C308.967 359.668 308.848 359.645 308.727 359.645C308.607 359.645 308.488 359.668 308.376 359.712C308.265 359.757 308.164 359.822 308.08 359.904C307.995 359.986 307.929 360.084 307.884 360.191C307.839 360.298 307.816 360.412 307.818 360.528V359.076C307.82 358.96 307.798 358.846 307.753 358.739C307.708 358.632 307.641 358.534 307.557 358.452C307.472 358.37 307.371 358.305 307.26 358.26C307.149 358.216 307.03 358.193 306.909 358.193C306.789 358.193 306.669 358.216 306.558 358.26C306.447 358.305 306.346 358.37 306.262 358.452C306.177 358.534 306.11 358.632 306.065 358.739C306.021 358.846 305.998 358.96 306 359.076C306.002 358.959 305.979 358.844 305.933 358.736C305.887 358.628 305.819 358.53 305.733 358.448C305.647 358.365 305.545 358.301 305.432 358.257C305.319 358.213 305.198 358.192 305.077 358.193C304.836 358.197 304.606 358.292 304.439 358.457C304.271 358.623 304.179 358.845 304.182 359.076V360.528C304.184 360.411 304.161 360.295 304.115 360.187C304.07 360.079 304.002 359.981 303.916 359.898C303.83 359.816 303.727 359.751 303.614 359.707C303.501 359.663 303.38 359.642 303.259 359.644C303.139 359.645 303.021 359.67 302.912 359.715C302.802 359.76 302.703 359.826 302.62 359.908C302.537 359.99 302.471 360.087 302.427 360.193C302.383 360.3 302.362 360.413 302.364 360.528V362.846C302.364 362.898 302.368 362.95 302.378 363.001C302.368 363.054 302.363 363.107 302.364 363.161C302.364 363.774 301.858 364.259 301.202 364.259H299.539C298.089 364.259 296.909 363.116 296.909 361.655C296.909 360.193 298.088 359.049 299.539 359.049H301.469C302.956 359.049 304.182 357.875 304.182 356.451C304.182 355.967 304.571 355.594 305.077 355.594ZM299.684 360.4C299.323 360.4 298.976 360.538 298.72 360.783C298.464 361.027 298.321 361.359 298.321 361.706C298.321 362.052 298.464 362.384 298.72 362.629C298.976 362.874 299.323 363.011 299.684 363.011C300.046 363.011 300.393 362.874 300.649 362.629C300.904 362.384 301.048 362.052 301.048 361.706C301.048 361.359 300.904 361.027 300.649 360.783C300.393 360.538 300.046 360.4 299.684 360.4ZM312.301 360.4C311.94 360.4 311.593 360.538 311.337 360.783C311.082 361.027 310.938 361.359 310.938 361.706C310.938 362.052 311.082 362.384 311.337 362.629C311.593 362.874 311.94 363.011 312.301 363.011C312.663 363.011 313.01 362.874 313.266 362.629C313.521 362.384 313.665 362.052 313.665 361.706C313.665 361.359 313.521 361.027 313.266 360.783C313.01 360.538 312.663 360.4 312.301 360.4ZM307.818 362.846C307.818 362.897 307.822 362.947 307.831 362.996C307.824 363.03 307.82 363.065 307.818 363.1V362.846Z" fill="black"/>
<circle cx="306" cy="425" r="30" fill="#8FB6CF"/>
<path d="M306 405C299.11 405 293.5 408.903 293.5 413.696V416.304H288.5C287.812 416.304 287.25 416.695 287.25 417.174V418.913H286V420.652H287.25V436.304C287.25 436.399 287.27 436.491 287.313 436.579L288.402 438.845L286.132 442.001C286.044 442.123 286 442.255 286 442.391V444.13C286 444.609 286.562 445 287.25 445H293.5C294.188 445 294.75 444.609 294.75 444.13V436.304H295.331L297.46 438.526C297.689 438.767 298.08 438.913 298.5 438.913H313.5C313.92 438.913 314.311 438.767 314.54 438.526L316.669 436.304H317.25V444.13C317.25 444.609 317.812 445 318.5 445H324.75C325.438 445 326 444.609 326 444.13V442.391C326 442.255 325.956 442.123 325.868 442.001L323.598 438.845L324.687 436.579C324.73 436.491 324.75 436.399 324.75 436.304V420.652H326V418.913H324.75V417.174C324.75 416.695 324.188 416.304 323.5 416.304H318.5V413.696C318.5 408.903 312.89 405 306 405ZM306 406.739C311.537 406.739 316 409.844 316 413.696V416.304H309.75V411.087C309.75 410.608 309.188 410.217 308.5 410.217H303.5C302.812 410.217 302.25 410.608 302.25 411.087V412.826H296.083C296.698 409.389 300.888 406.739 306 406.739ZM304.75 411.957H307.25V416.304H304.75V411.957ZM312.25 413.696C311.562 413.696 311 414.086 311 414.565C311 415.044 311.562 415.435 312.25 415.435C312.938 415.435 313.5 415.044 313.5 414.565C313.5 414.086 312.938 413.696 312.25 413.696ZM296 414.565H302.25V416.304H296V414.565ZM289.75 418.043H292.25V438.043H290.648L289.75 436.165V418.043ZM294.75 418.043H317.25V434.565H316.215C316.142 434.558 316.073 434.552 316 434.552V432.826H313.5V434.565H309.75V424.13C309.75 423.651 309.188 423.261 308.5 423.261H303.5C302.812 423.261 302.25 423.651 302.25 424.13V434.565H296.171C296.107 434.558 296.049 434.555 295.985 434.555C295.927 434.555 295.873 434.558 295.814 434.565H294.75V418.043ZM319.75 418.043H322.25V436.165L321.352 438.043H319.75V418.043ZM297.25 419.783V421.522H314.75V419.783H297.25ZM304.75 425H307.25V434.565H304.75V425ZM298.339 436.304H313.661L312.831 437.174H299.169L298.339 436.304ZM290.521 439.783H292.25V443.261H288.5V442.595L290.521 439.783ZM319.75 439.783H321.479L323.5 442.595V443.261H319.75V439.783Z" fill="black"/>
<circle cx="398" cy="30" r="30" fill="#D9D9D9"/>
<circle cx="398" cy="109" r="30" fill="#D9D9D9"/>
<circle cx="398" cy="188" r="30" fill="#D9D9D9"/>
<circle cx="398" cy="267" r="30" fill="#D9D9D9"/>
<circle cx="398" cy="346" r="30" fill="#D9D9D9"/>
<circle cx="398" cy="425" r="30" fill="#8FB6CF"/>
<path d="M398 405C391.11 405 385.5 408.903 385.5 413.696V416.304H380.5C379.812 416.304 379.25 416.695 379.25 417.174V418.913H378V420.652H379.25V436.304C379.25 436.399 379.27 436.491 379.313 436.579L380.402 438.845L378.132 442.001C378.044 442.123 378 442.255 378 442.391V444.13C378 444.609 378.562 445 379.25 445H385.5C386.188 445 386.75 444.609 386.75 444.13V436.304H387.331L389.46 438.526C389.689 438.767 390.08 438.913 390.5 438.913H405.5C405.92 438.913 406.311 438.767 406.54 438.526L408.669 436.304H409.25V444.13C409.25 444.609 409.812 445 410.5 445H416.75C417.438 445 418 444.609 418 444.13V442.391C418 442.255 417.956 442.123 417.868 442.001L415.598 438.845L416.687 436.579C416.73 436.491 416.75 436.399 416.75 436.304V420.652H418V418.913H416.75V417.174C416.75 416.695 416.188 416.304 415.5 416.304H410.5V413.696C410.5 408.903 404.89 405 398 405ZM398 406.739C403.537 406.739 408 409.844 408 413.696V416.304H401.75V411.087C401.75 410.608 401.188 410.217 400.5 410.217H395.5C394.812 410.217 394.25 410.608 394.25 411.087V412.826H388.083C388.698 409.389 392.888 406.739 398 406.739ZM396.75 411.957H399.25V416.304H396.75V411.957ZM404.25 413.696C403.562 413.696 403 414.086 403 414.565C403 415.044 403.562 415.435 404.25 415.435C404.938 415.435 405.5 415.044 405.5 414.565C405.5 414.086 404.938 413.696 404.25 413.696ZM388 414.565H394.25V416.304H388V414.565ZM381.75 418.043H384.25V438.043H382.648L381.75 436.165V418.043ZM386.75 418.043H409.25V434.565H408.215C408.142 434.558 408.073 434.552 408 434.552V432.826H405.5V434.565H401.75V424.13C401.75 423.651 401.188 423.261 400.5 423.261H395.5C394.812 423.261 394.25 423.651 394.25 424.13V434.565H388.171C388.107 434.558 388.049 434.555 387.985 434.555C387.927 434.555 387.873 434.558 387.814 434.565H386.75V418.043ZM411.75 418.043H414.25V436.165L413.352 438.043H411.75V418.043ZM389.25 419.783V421.522H406.75V419.783H389.25ZM396.75 425H399.25V434.565H396.75V425ZM390.339 436.304H405.661L404.831 437.174H391.169L390.339 436.304ZM382.521 439.783H384.25V443.261H380.5V442.595L382.521 439.783ZM411.75 439.783H413.479L415.5 442.595V443.261H411.75V439.783Z" fill="black"/>
<circle cx="490" cy="30" r="30" fill="#D9D9D9"/>
<circle cx="490" cy="109" r="30" fill="#D9D9D9"/>
<circle cx="490" cy="188" r="30" fill="#D9D9D9"/>
<circle cx="490" cy="267" r="30" fill="#D9D9D9"/>
<circle cx="490" cy="346" r="30" fill="#D9D9D9"/>
<circle cx="490" cy="425" r="30" fill="#D9D9D9"/>
<circle cx="582" cy="30" r="30" fill="#D9D9D9"/>
<circle cx="582" cy="109" r="30" fill="#D9D9D9"/>
<circle cx="582" cy="188" r="30" fill="#D9D9D9"/>
<circle cx="582" cy="267" r="30" fill="#D9D9D9"/>
<circle cx="582" cy="346" r="30" fill="#D9D9D9"/>
<circle cx="582" cy="425" r="30" fill="#D9D9D9"/>
</g>
<defs>
<clipPath id="clip0_186_3579">
<rect width="612" height="455" fill="white"/>
</clipPath>
</defs>
</svg>
