<svg width="30" height="30" viewBox="0 0 30 30" fill="none" xmlns="http://www.w3.org/2000/svg">
<path d="M19.5312 3.6875C20.8008 3.6875 21.875 4.76172 21.875 6.03125V23.2188C21.875 24.5371 20.8008 25.5625 19.5312 25.5625H12.793V18.1406H15.625L16.1621 14.625H12.793V12.3789C12.793 11.4023 13.2812 10.4746 14.7949 10.4746H16.3086V7.49609C16.3086 7.49609 14.9414 7.25195 13.5742 7.25195C10.8398 7.25195 9.0332 8.96094 9.0332 11.9883V14.625H5.95703V18.1406H9.0332V25.5625H2.34375C1.02539 25.5625 0 24.5371 0 23.2188V6.03125C0 4.76172 1.02539 3.6875 2.34375 3.6875H19.5312Z" fill="white" fill-opacity="0.8"/>
</svg>
