<svg width="31" height="30" viewBox="0 0 31 30" fill="none" xmlns="http://www.w3.org/2000/svg">
<path d="M18.8477 14.3066C18.8965 14.7949 18.9941 15.2344 18.9941 15.8691C18.9941 21.2402 15.3809 25 9.96094 25C4.78516 25 0.585938 20.8496 0.585938 15.625C0.585938 10.4492 4.78516 6.25 9.96094 6.25C12.5 6.25 14.5996 7.17773 16.2598 8.74023L13.7207 11.1816C13.0371 10.498 11.8164 9.7168 9.96094 9.7168C6.78711 9.7168 4.15039 12.3535 4.15039 15.625C4.15039 18.9453 6.78711 21.582 9.96094 21.582C13.6719 21.582 15.0879 18.8965 15.2832 17.5293H9.96094V14.3066H18.8477ZM27.8809 14.5996H30.6152V17.334H27.8809V20.0684H25.1465V17.334H22.4121V14.5996H25.1465V11.9141H27.8809V14.5996Z" fill="white" fill-opacity="0.8"/>
</svg>
