<svg width="31" height="30" viewBox="0 0 31 30" fill="none" xmlns="http://www.w3.org/2000/svg">
<path d="M11.9375 9.00977C15.0137 9.00977 17.5527 11.5488 17.5527 14.625C17.5527 17.75 15.0137 20.2402 11.9375 20.2402C8.8125 20.2402 6.32227 17.75 6.32227 14.625C6.32227 11.5488 8.8125 9.00977 11.9375 9.00977ZM11.9375 18.2871C13.9395 18.2871 15.5508 16.6758 15.5508 14.625C15.5508 12.623 13.9395 11.0117 11.9375 11.0117C9.88672 11.0117 8.27539 12.623 8.27539 14.625C8.27539 16.6758 9.93555 18.2871 11.9375 18.2871ZM19.0664 8.81445C19.0664 9.54688 18.4805 10.1328 17.748 10.1328C17.0156 10.1328 16.4297 9.54688 16.4297 8.81445C16.4297 8.08203 17.0156 7.49609 17.748 7.49609C18.4805 7.49609 19.0664 8.08203 19.0664 8.81445ZM22.7773 10.1328C22.875 11.9395 22.875 17.3594 22.7773 19.166C22.6797 20.9238 22.2891 22.4375 21.0195 23.7559C19.75 25.0254 18.1875 25.416 16.4297 25.5137C14.623 25.6113 9.20312 25.6113 7.39648 25.5137C5.63867 25.416 4.125 25.0254 2.80664 23.7559C1.53711 22.4375 1.14648 20.9238 1.04883 19.166C0.951172 17.3594 0.951172 11.9395 1.04883 10.1328C1.14648 8.375 1.53711 6.8125 2.80664 5.54297C4.125 4.27344 5.63867 3.88281 7.39648 3.78516C9.20312 3.6875 14.623 3.6875 16.4297 3.78516C18.1875 3.88281 19.75 4.27344 21.0195 5.54297C22.2891 6.8125 22.6797 8.375 22.7773 10.1328ZM20.4336 21.0703C21.0195 19.6543 20.873 16.2363 20.873 14.625C20.873 13.0625 21.0195 9.64453 20.4336 8.17969C20.043 7.25195 19.3105 6.4707 18.3828 6.12891C16.918 5.54297 13.5 5.68945 11.9375 5.68945C10.3262 5.68945 6.9082 5.54297 5.49219 6.12891C4.51562 6.51953 3.7832 7.25195 3.39258 8.17969C2.80664 9.64453 2.95312 13.0625 2.95312 14.625C2.95312 16.2363 2.80664 19.6543 3.39258 21.0703C3.7832 22.0469 4.51562 22.7793 5.49219 23.1699C6.9082 23.7559 10.3262 23.6094 11.9375 23.6094C13.5 23.6094 16.918 23.7559 18.3828 23.1699C19.3105 22.7793 20.0918 22.0469 20.4336 21.0703Z" fill="white" fill-opacity="0.8"/>
</svg>
