<svg width="21" height="24" viewBox="0 0 21 24" fill="none" xmlns="http://www.w3.org/2000/svg">
<path d="M9.4375 7.625C9.12109 7.625 8.875 7.37891 8.875 7.0625V5.9375C8.875 5.65625 9.12109 5.375 9.4375 5.375H11.6875C11.9688 5.375 12.25 5.65625 12.25 5.9375V7.0625C12.25 7.37891 11.9688 7.625 11.6875 7.625H9.4375ZM9.4375 12.125C9.12109 12.125 8.875 11.8789 8.875 11.5625V10.4375C8.875 10.1562 9.12109 9.875 9.4375 9.875H13.9375C14.2188 9.875 14.5 10.1562 14.5 10.4375V11.5625C14.5 11.8789 14.2188 12.125 13.9375 12.125H9.4375ZM18.4375 18.875C18.7188 18.875 19 19.1562 19 19.4375V20.5625C19 20.8789 18.7188 21.125 18.4375 21.125H9.4375C9.12109 21.125 8.875 20.8789 8.875 20.5625V19.4375C8.875 19.1562 9.12109 18.875 9.4375 18.875H18.4375ZM9.4375 16.625C9.12109 16.625 8.875 16.3789 8.875 16.0625V14.9375C8.875 14.6562 9.12109 14.375 9.4375 14.375H16.1875C16.4688 14.375 16.75 14.6562 16.75 14.9375V16.0625C16.75 16.3789 16.4688 16.625 16.1875 16.625H9.4375ZM7.1875 16.625C7.67969 16.625 7.92578 17.2578 7.57422 17.6094L4.76172 20.9844C4.65625 21.0898 4.51562 21.125 4.375 21.125C4.19922 21.125 4.05859 21.0898 3.95312 20.9844L1.14062 17.6094C0.789062 17.2578 1.03516 16.625 1.5625 16.625H3.25V5.9375C3.25 5.65625 3.49609 5.375 3.8125 5.375H4.9375C5.21875 5.375 5.5 5.65625 5.5 5.9375V16.625H7.1875Z" fill="white"/>
</svg>
