<svg width="162" height="328" viewBox="0 0 162 328" fill="none" xmlns="http://www.w3.org/2000/svg">
<circle cx="20" cy="20" r="20" fill="#8FB6CF"/>
<path d="M20 6.66669C15.4069 6.66669 11.6666 9.26859 11.6666 12.4638V14.2029H8.33329C7.87431 14.2029 7.49996 14.4633 7.49996 14.7826V15.942H6.66663V17.1015H7.49996V27.5363C7.49996 27.5997 7.51298 27.6608 7.54228 27.7197L8.26819 29.2301L6.75452 31.3338C6.69592 31.4153 6.66663 31.5036 6.66663 31.5942V32.7536C6.66663 33.0729 7.04098 33.3334 7.49996 33.3334H11.6666C12.1256 33.3334 12.5 33.0729 12.5 32.7536V27.5363H12.8873L14.3066 29.0172C14.4596 29.178 14.72 29.2754 15 29.2754H25C25.2799 29.2754 25.5403 29.178 25.6933 29.0172L27.1126 27.5363H27.5V32.7536C27.5 33.0729 27.8743 33.3334 28.3333 33.3334H32.5C32.9589 33.3334 33.3333 33.0729 33.3333 32.7536V31.5942C33.3333 31.5036 33.304 31.4153 33.2454 31.3338L31.7317 29.2301L32.4576 27.7197C32.4869 27.6608 32.5 27.5997 32.5 27.5363V17.1015H33.3333V15.942H32.5V14.7826C32.5 14.4633 32.1256 14.2029 31.6666 14.2029H28.3333V12.4638C28.3333 9.26859 24.5931 6.66669 20 6.66669ZM20 7.82611C23.6914 7.82611 26.6666 9.89585 26.6666 12.4638V14.2029H22.5V10.7247C22.5 10.4054 22.1256 10.1449 21.6666 10.1449H18.3333C17.8743 10.1449 17.5 10.4054 17.5 10.7247V11.8841H13.3886C13.7988 9.59241 16.5918 7.82611 20 7.82611ZM19.1666 11.3044H20.8333V14.2029H19.1666V11.3044ZM24.1666 12.4638C23.7076 12.4638 23.3333 12.7242 23.3333 13.0435C23.3333 13.3628 23.7076 13.6232 24.1666 13.6232C24.6256 13.6232 25 13.3628 25 13.0435C25 12.7242 24.6256 12.4638 24.1666 12.4638ZM13.3333 13.0435H17.5V14.2029H13.3333V13.0435ZM9.16663 15.3623H10.8333V28.6957H9.76558L9.16663 27.4434V15.3623ZM12.5 15.3623H27.5V26.3768H26.8099C26.761 26.3723 26.7155 26.3678 26.6666 26.3678V25.2174H25V26.3768H22.5V19.4203C22.5 19.101 22.1256 18.8406 21.6666 18.8406H18.3333C17.8743 18.8406 17.5 19.101 17.5 19.4203V26.3768H13.4472C13.4049 26.3723 13.3658 26.37 13.3235 26.37C13.2845 26.37 13.2487 26.3723 13.2096 26.3768H12.5V15.3623ZM29.1666 15.3623H30.8333V27.4434L30.2343 28.6957H29.1666V15.3623ZM14.1666 16.5218V17.6812H25.8333V16.5218H14.1666ZM19.1666 20H20.8333V26.3768H19.1666V20ZM14.8925 27.5363H25.1074L24.554 28.116H15.4459L14.8925 27.5363ZM9.68095 29.8551H10.8333V32.1739H8.33329V31.7301L9.68095 29.8551ZM29.1666 29.8551H30.319L31.6666 31.7301V32.1739H29.1666V29.8551Z" fill="black"/>
<circle cx="20" cy="68" r="20" fill="#8FB6CF"/>
<path d="M20 54.6667C15.4069 54.6667 11.6666 57.2686 11.6666 60.4638V62.2029H8.33329C7.87431 62.2029 7.49996 62.4633 7.49996 62.7826V63.942H6.66663V65.1015H7.49996V75.5363C7.49996 75.5997 7.51298 75.6608 7.54228 75.7197L8.26819 77.2301L6.75452 79.3338C6.69592 79.4153 6.66663 79.5036 6.66663 79.5942V80.7536C6.66663 81.0729 7.04098 81.3334 7.49996 81.3334H11.6666C12.1256 81.3334 12.5 81.0729 12.5 80.7536V75.5363H12.8873L14.3066 77.0172C14.4596 77.178 14.72 77.2754 15 77.2754H25C25.2799 77.2754 25.5403 77.178 25.6933 77.0172L27.1126 75.5363H27.5V80.7536C27.5 81.0729 27.8743 81.3334 28.3333 81.3334H32.5C32.9589 81.3334 33.3333 81.0729 33.3333 80.7536V79.5942C33.3333 79.5036 33.304 79.4153 33.2454 79.3338L31.7317 77.2301L32.4576 75.7197C32.4869 75.6608 32.5 75.5997 32.5 75.5363V65.1015H33.3333V63.942H32.5V62.7826C32.5 62.4633 32.1256 62.2029 31.6666 62.2029H28.3333V60.4638C28.3333 57.2686 24.5931 54.6667 20 54.6667ZM20 55.8261C23.6914 55.8261 26.6666 57.8959 26.6666 60.4638V62.2029H22.5V58.7247C22.5 58.4054 22.1256 58.1449 21.6666 58.1449H18.3333C17.8743 58.1449 17.5 58.4054 17.5 58.7247V59.8841H13.3886C13.7988 57.5924 16.5918 55.8261 20 55.8261ZM19.1666 59.3044H20.8333V62.2029H19.1666V59.3044ZM24.1666 60.4638C23.7076 60.4638 23.3333 60.7242 23.3333 61.0435C23.3333 61.3628 23.7076 61.6232 24.1666 61.6232C24.6256 61.6232 25 61.3628 25 61.0435C25 60.7242 24.6256 60.4638 24.1666 60.4638ZM13.3333 61.0435H17.5V62.2029H13.3333V61.0435ZM9.16663 63.3623H10.8333V76.6957H9.76558L9.16663 75.4434V63.3623ZM12.5 63.3623H27.5V74.3768H26.8099C26.761 74.3723 26.7155 74.3678 26.6666 74.3678V73.2174H25V74.3768H22.5V67.4203C22.5 67.101 22.1256 66.8406 21.6666 66.8406H18.3333C17.8743 66.8406 17.5 67.101 17.5 67.4203V74.3768H13.4472C13.4049 74.3723 13.3658 74.37 13.3235 74.37C13.2845 74.37 13.2487 74.3723 13.2096 74.3768H12.5V63.3623ZM29.1666 63.3623H30.8333V75.4434L30.2343 76.6957H29.1666V63.3623ZM14.1666 64.5218V65.6812H25.8333V64.5218H14.1666ZM19.1666 68H20.8333V74.3768H19.1666V68ZM14.8925 75.5363H25.1074L24.554 76.116H15.4459L14.8925 75.5363ZM9.68095 77.8551H10.8333V80.1739H8.33329V79.7301L9.68095 77.8551ZM29.1666 77.8551H30.319L31.6666 79.7301V80.1739H29.1666V77.8551Z" fill="black"/>
<circle cx="20" cy="116" r="20" fill="#8FB6CF"/>
<path d="M20 102.667C15.4069 102.667 11.6666 105.269 11.6666 108.464V110.203H8.33329C7.87431 110.203 7.49996 110.463 7.49996 110.783V111.942H6.66663V113.101H7.49996V123.536C7.49996 123.6 7.51298 123.661 7.54228 123.72L8.26819 125.23L6.75452 127.334C6.69592 127.415 6.66663 127.504 6.66663 127.594V128.754C6.66663 129.073 7.04098 129.333 7.49996 129.333H11.6666C12.1256 129.333 12.5 129.073 12.5 128.754V123.536H12.8873L14.3066 125.017C14.4596 125.178 14.72 125.275 15 125.275H25C25.2799 125.275 25.5403 125.178 25.6933 125.017L27.1126 123.536H27.5V128.754C27.5 129.073 27.8743 129.333 28.3333 129.333H32.5C32.9589 129.333 33.3333 129.073 33.3333 128.754V127.594C33.3333 127.504 33.304 127.415 33.2454 127.334L31.7317 125.23L32.4576 123.72C32.4869 123.661 32.5 123.6 32.5 123.536V113.101H33.3333V111.942H32.5V110.783C32.5 110.463 32.1256 110.203 31.6666 110.203H28.3333V108.464C28.3333 105.269 24.5931 102.667 20 102.667ZM20 103.826C23.6914 103.826 26.6666 105.896 26.6666 108.464V110.203H22.5V106.725C22.5 106.405 22.1256 106.145 21.6666 106.145H18.3333C17.8743 106.145 17.5 106.405 17.5 106.725V107.884H13.3886C13.7988 105.592 16.5918 103.826 20 103.826ZM19.1666 107.304H20.8333V110.203H19.1666V107.304ZM24.1666 108.464C23.7076 108.464 23.3333 108.724 23.3333 109.043C23.3333 109.363 23.7076 109.623 24.1666 109.623C24.6256 109.623 25 109.363 25 109.043C25 108.724 24.6256 108.464 24.1666 108.464ZM13.3333 109.043H17.5V110.203H13.3333V109.043ZM9.16663 111.362H10.8333V124.696H9.76558L9.16663 123.443V111.362ZM12.5 111.362H27.5V122.377H26.8099C26.761 122.372 26.7155 122.368 26.6666 122.368V121.217H25V122.377H22.5V115.42C22.5 115.101 22.1256 114.841 21.6666 114.841H18.3333C17.8743 114.841 17.5 115.101 17.5 115.42V122.377H13.4472C13.4049 122.372 13.3658 122.37 13.3235 122.37C13.2845 122.37 13.2487 122.372 13.2096 122.377H12.5V111.362ZM29.1666 111.362H30.8333V123.443L30.2343 124.696H29.1666V111.362ZM14.1666 112.522V113.681H25.8333V112.522H14.1666ZM19.1666 116H20.8333V122.377H19.1666V116ZM14.8925 123.536H25.1074L24.554 124.116H15.4459L14.8925 123.536ZM9.68095 125.855H10.8333V128.174H8.33329V127.73L9.68095 125.855ZM29.1666 125.855H30.319L31.6666 127.73V128.174H29.1666V125.855Z" fill="black"/>
<circle cx="20" cy="164" r="20" fill="#8FB6CF"/>
<path d="M20 150.667C15.4069 150.667 11.6666 153.269 11.6666 156.464V158.203H8.33329C7.87431 158.203 7.49996 158.463 7.49996 158.783V159.942H6.66663V161.101H7.49996V171.536C7.49996 171.6 7.51298 171.661 7.54228 171.72L8.26819 173.23L6.75452 175.334C6.69592 175.415 6.66663 175.504 6.66663 175.594V176.754C6.66663 177.073 7.04098 177.333 7.49996 177.333H11.6666C12.1256 177.333 12.5 177.073 12.5 176.754V171.536H12.8873L14.3066 173.017C14.4596 173.178 14.72 173.275 15 173.275H25C25.2799 173.275 25.5403 173.178 25.6933 173.017L27.1126 171.536H27.5V176.754C27.5 177.073 27.8743 177.333 28.3333 177.333H32.5C32.9589 177.333 33.3333 177.073 33.3333 176.754V175.594C33.3333 175.504 33.304 175.415 33.2454 175.334L31.7317 173.23L32.4576 171.72C32.4869 171.661 32.5 171.6 32.5 171.536V161.101H33.3333V159.942H32.5V158.783C32.5 158.463 32.1256 158.203 31.6666 158.203H28.3333V156.464C28.3333 153.269 24.5931 150.667 20 150.667ZM20 151.826C23.6914 151.826 26.6666 153.896 26.6666 156.464V158.203H22.5V154.725C22.5 154.405 22.1256 154.145 21.6666 154.145H18.3333C17.8743 154.145 17.5 154.405 17.5 154.725V155.884H13.3886C13.7988 153.592 16.5918 151.826 20 151.826ZM19.1666 155.304H20.8333V158.203H19.1666V155.304ZM24.1666 156.464C23.7076 156.464 23.3333 156.724 23.3333 157.043C23.3333 157.363 23.7076 157.623 24.1666 157.623C24.6256 157.623 25 157.363 25 157.043C25 156.724 24.6256 156.464 24.1666 156.464ZM13.3333 157.043H17.5V158.203H13.3333V157.043ZM9.16663 159.362H10.8333V172.696H9.76558L9.16663 171.443V159.362ZM12.5 159.362H27.5V170.377H26.8099C26.761 170.372 26.7155 170.368 26.6666 170.368V169.217H25V170.377H22.5V163.42C22.5 163.101 22.1256 162.841 21.6666 162.841H18.3333C17.8743 162.841 17.5 163.101 17.5 163.42V170.377H13.4472C13.4049 170.372 13.3658 170.37 13.3235 170.37C13.2845 170.37 13.2487 170.372 13.2096 170.377H12.5V159.362ZM29.1666 159.362H30.8333V171.443L30.2343 172.696H29.1666V159.362ZM14.1666 160.522V161.681H25.8333V160.522H14.1666ZM19.1666 164H20.8333V170.377H19.1666V164ZM14.8925 171.536H25.1074L24.554 172.116H15.4459L14.8925 171.536ZM9.68095 173.855H10.8333V176.174H8.33329V175.73L9.68095 173.855ZM29.1666 173.855H30.319L31.6666 175.73V176.174H29.1666V173.855Z" fill="black"/>
<circle cx="20" cy="212" r="20" fill="#8FB6CF"/>
<path d="M20 198.667C15.4069 198.667 11.6666 201.269 11.6666 204.464V206.203H8.33329C7.87431 206.203 7.49996 206.463 7.49996 206.783V207.942H6.66663V209.101H7.49996V219.536C7.49996 219.6 7.51298 219.661 7.54228 219.72L8.26819 221.23L6.75452 223.334C6.69592 223.415 6.66663 223.504 6.66663 223.594V224.754C6.66663 225.073 7.04098 225.333 7.49996 225.333H11.6666C12.1256 225.333 12.5 225.073 12.5 224.754V219.536H12.8873L14.3066 221.017C14.4596 221.178 14.72 221.275 15 221.275H25C25.2799 221.275 25.5403 221.178 25.6933 221.017L27.1126 219.536H27.5V224.754C27.5 225.073 27.8743 225.333 28.3333 225.333H32.5C32.9589 225.333 33.3333 225.073 33.3333 224.754V223.594C33.3333 223.504 33.304 223.415 33.2454 223.334L31.7317 221.23L32.4576 219.72C32.4869 219.661 32.5 219.6 32.5 219.536V209.101H33.3333V207.942H32.5V206.783C32.5 206.463 32.1256 206.203 31.6666 206.203H28.3333V204.464C28.3333 201.269 24.5931 198.667 20 198.667ZM20 199.826C23.6914 199.826 26.6666 201.896 26.6666 204.464V206.203H22.5V202.725C22.5 202.405 22.1256 202.145 21.6666 202.145H18.3333C17.8743 202.145 17.5 202.405 17.5 202.725V203.884H13.3886C13.7988 201.592 16.5918 199.826 20 199.826ZM19.1666 203.304H20.8333V206.203H19.1666V203.304ZM24.1666 204.464C23.7076 204.464 23.3333 204.724 23.3333 205.043C23.3333 205.363 23.7076 205.623 24.1666 205.623C24.6256 205.623 25 205.363 25 205.043C25 204.724 24.6256 204.464 24.1666 204.464ZM13.3333 205.043H17.5V206.203H13.3333V205.043ZM9.16663 207.362H10.8333V220.696H9.76558L9.16663 219.443V207.362ZM12.5 207.362H27.5V218.377H26.8099C26.761 218.372 26.7155 218.368 26.6666 218.368V217.217H25V218.377H22.5V211.42C22.5 211.101 22.1256 210.841 21.6666 210.841H18.3333C17.8743 210.841 17.5 211.101 17.5 211.42V218.377H13.4472C13.4049 218.372 13.3658 218.37 13.3235 218.37C13.2845 218.37 13.2487 218.372 13.2096 218.377H12.5V207.362ZM29.1666 207.362H30.8333V219.443L30.2343 220.696H29.1666V207.362ZM14.1666 208.522V209.681H25.8333V208.522H14.1666ZM19.1666 212H20.8333V218.377H19.1666V212ZM14.8925 219.536H25.1074L24.554 220.116H15.4459L14.8925 219.536ZM9.68095 221.855H10.8333V224.174H8.33329V223.73L9.68095 221.855ZM29.1666 221.855H30.319L31.6666 223.73V224.174H29.1666V221.855Z" fill="black"/>
<circle cx="20" cy="260" r="20" fill="#8FB6CF"/>
<path d="M20 246.667C15.4069 246.667 11.6666 249.269 11.6666 252.464V254.203H8.33329C7.87431 254.203 7.49996 254.463 7.49996 254.783V255.942H6.66663V257.101H7.49996V267.536C7.49996 267.6 7.51298 267.661 7.54228 267.72L8.26819 269.23L6.75452 271.334C6.69592 271.415 6.66663 271.504 6.66663 271.594V272.754C6.66663 273.073 7.04098 273.333 7.49996 273.333H11.6666C12.1256 273.333 12.5 273.073 12.5 272.754V267.536H12.8873L14.3066 269.017C14.4596 269.178 14.72 269.275 15 269.275H25C25.2799 269.275 25.5403 269.178 25.6933 269.017L27.1126 267.536H27.5V272.754C27.5 273.073 27.8743 273.333 28.3333 273.333H32.5C32.9589 273.333 33.3333 273.073 33.3333 272.754V271.594C33.3333 271.504 33.304 271.415 33.2454 271.334L31.7317 269.23L32.4576 267.72C32.4869 267.661 32.5 267.6 32.5 267.536V257.101H33.3333V255.942H32.5V254.783C32.5 254.463 32.1256 254.203 31.6666 254.203H28.3333V252.464C28.3333 249.269 24.5931 246.667 20 246.667ZM20 247.826C23.6914 247.826 26.6666 249.896 26.6666 252.464V254.203H22.5V250.725C22.5 250.405 22.1256 250.145 21.6666 250.145H18.3333C17.8743 250.145 17.5 250.405 17.5 250.725V251.884H13.3886C13.7988 249.592 16.5918 247.826 20 247.826ZM19.1666 251.304H20.8333V254.203H19.1666V251.304ZM24.1666 252.464C23.7076 252.464 23.3333 252.724 23.3333 253.043C23.3333 253.363 23.7076 253.623 24.1666 253.623C24.6256 253.623 25 253.363 25 253.043C25 252.724 24.6256 252.464 24.1666 252.464ZM13.3333 253.043H17.5V254.203H13.3333V253.043ZM9.16663 255.362H10.8333V268.696H9.76558L9.16663 267.443V255.362ZM12.5 255.362H27.5V266.377H26.8099C26.761 266.372 26.7155 266.368 26.6666 266.368V265.217H25V266.377H22.5V259.42C22.5 259.101 22.1256 258.841 21.6666 258.841H18.3333C17.8743 258.841 17.5 259.101 17.5 259.42V266.377H13.4472C13.4049 266.372 13.3658 266.37 13.3235 266.37C13.2845 266.37 13.2487 266.372 13.2096 266.377H12.5V255.362ZM29.1666 255.362H30.8333V267.443L30.2343 268.696H29.1666V255.362ZM14.1666 256.522V257.681H25.8333V256.522H14.1666ZM19.1666 260H20.8333V266.377H19.1666V260ZM14.8925 267.536H25.1074L24.554 268.116H15.4459L14.8925 267.536ZM9.68095 269.855H10.8333V272.174H8.33329V271.73L9.68095 269.855ZM29.1666 269.855H30.319L31.6666 271.73V272.174H29.1666V269.855Z" fill="black"/>
<circle cx="20" cy="308" r="20" fill="#8FB6CF"/>
<path d="M20 294.667C15.4069 294.667 11.6666 297.269 11.6666 300.464V302.203H8.33329C7.87431 302.203 7.49996 302.463 7.49996 302.783V303.942H6.66663V305.101H7.49996V315.536C7.49996 315.6 7.51298 315.661 7.54228 315.72L8.26819 317.23L6.75452 319.334C6.69592 319.415 6.66663 319.504 6.66663 319.594V320.754C6.66663 321.073 7.04098 321.333 7.49996 321.333H11.6666C12.1256 321.333 12.5 321.073 12.5 320.754V315.536H12.8873L14.3066 317.017C14.4596 317.178 14.72 317.275 15 317.275H25C25.2799 317.275 25.5403 317.178 25.6933 317.017L27.1126 315.536H27.5V320.754C27.5 321.073 27.8743 321.333 28.3333 321.333H32.5C32.9589 321.333 33.3333 321.073 33.3333 320.754V319.594C33.3333 319.504 33.304 319.415 33.2454 319.334L31.7317 317.23L32.4576 315.72C32.4869 315.661 32.5 315.6 32.5 315.536V305.101H33.3333V303.942H32.5V302.783C32.5 302.463 32.1256 302.203 31.6666 302.203H28.3333V300.464C28.3333 297.269 24.5931 294.667 20 294.667ZM20 295.826C23.6914 295.826 26.6666 297.896 26.6666 300.464V302.203H22.5V298.725C22.5 298.405 22.1256 298.145 21.6666 298.145H18.3333C17.8743 298.145 17.5 298.405 17.5 298.725V299.884H13.3886C13.7988 297.592 16.5918 295.826 20 295.826ZM19.1666 299.304H20.8333V302.203H19.1666V299.304ZM24.1666 300.464C23.7076 300.464 23.3333 300.724 23.3333 301.043C23.3333 301.363 23.7076 301.623 24.1666 301.623C24.6256 301.623 25 301.363 25 301.043C25 300.724 24.6256 300.464 24.1666 300.464ZM13.3333 301.043H17.5V302.203H13.3333V301.043ZM9.16663 303.362H10.8333V316.696H9.76558L9.16663 315.443V303.362ZM12.5 303.362H27.5V314.377H26.8099C26.761 314.372 26.7155 314.368 26.6666 314.368V313.217H25V314.377H22.5V307.42C22.5 307.101 22.1256 306.841 21.6666 306.841H18.3333C17.8743 306.841 17.5 307.101 17.5 307.42V314.377H13.4472C13.4049 314.372 13.3658 314.37 13.3235 314.37C13.2845 314.37 13.2487 314.372 13.2096 314.377H12.5V303.362ZM29.1666 303.362H30.8333V315.443L30.2343 316.696H29.1666V303.362ZM14.1666 304.522V305.681H25.8333V304.522H14.1666ZM19.1666 308H20.8333V314.377H19.1666V308ZM14.8925 315.536H25.1074L24.554 316.116H15.4459L14.8925 315.536ZM9.68095 317.855H10.8333V320.174H8.33329V319.73L9.68095 317.855ZM29.1666 317.855H30.319L31.6666 319.73V320.174H29.1666V317.855Z" fill="black"/>
<circle cx="81" cy="20" r="20" fill="#8FB6CF"/>
<path d="M81 6.66669C76.4069 6.66669 72.6666 9.26859 72.6666 12.4638V14.2029H69.3333C68.8743 14.2029 68.5 14.4633 68.5 14.7826V15.942H67.6666V17.1015H68.5V27.5363C68.5 27.5997 68.513 27.6608 68.5423 27.7197L69.2682 29.2301L67.7545 31.3338C67.6959 31.4153 67.6666 31.5036 67.6666 31.5942V32.7536C67.6666 33.0729 68.041 33.3334 68.5 33.3334H72.6666C73.1256 33.3334 73.5 33.0729 73.5 32.7536V27.5363H73.8873L75.3066 29.0172C75.4596 29.178 75.72 29.2754 76 29.2754H86C86.2799 29.2754 86.5403 29.178 86.6933 29.0172L88.1126 27.5363H88.5V32.7536C88.5 33.0729 88.8743 33.3334 89.3333 33.3334H93.5C93.9589 33.3334 94.3333 33.0729 94.3333 32.7536V31.5942C94.3333 31.5036 94.304 31.4153 94.2454 31.3338L92.7317 29.2301L93.4576 27.7197C93.4869 27.6608 93.5 27.5997 93.5 27.5363V17.1015H94.3333V15.942H93.5V14.7826C93.5 14.4633 93.1256 14.2029 92.6666 14.2029H89.3333V12.4638C89.3333 9.26859 85.5931 6.66669 81 6.66669ZM81 7.82611C84.6914 7.82611 87.6666 9.89585 87.6666 12.4638V14.2029H83.5V10.7247C83.5 10.4054 83.1256 10.1449 82.6666 10.1449H79.3333C78.8743 10.1449 78.5 10.4054 78.5 10.7247V11.8841H74.3886C74.7988 9.59241 77.5918 7.82611 81 7.82611ZM80.1666 11.3044H81.8333V14.2029H80.1666V11.3044ZM85.1666 12.4638C84.7076 12.4638 84.3333 12.7242 84.3333 13.0435C84.3333 13.3628 84.7076 13.6232 85.1666 13.6232C85.6256 13.6232 86 13.3628 86 13.0435C86 12.7242 85.6256 12.4638 85.1666 12.4638ZM74.3333 13.0435H78.5V14.2029H74.3333V13.0435ZM70.1666 15.3623H71.8333V28.6957H70.7656L70.1666 27.4434V15.3623ZM73.5 15.3623H88.5V26.3768H87.8099C87.761 26.3723 87.7155 26.3678 87.6666 26.3678V25.2174H86V26.3768H83.5V19.4203C83.5 19.101 83.1256 18.8406 82.6666 18.8406H79.3333C78.8743 18.8406 78.5 19.101 78.5 19.4203V26.3768H74.4472C74.4049 26.3723 74.3658 26.37 74.3235 26.37C74.2845 26.37 74.2487 26.3723 74.2096 26.3768H73.5V15.3623ZM90.1666 15.3623H91.8333V27.4434L91.2343 28.6957H90.1666V15.3623ZM75.1666 16.5218V17.6812H86.8333V16.5218H75.1666ZM80.1666 20H81.8333V26.3768H80.1666V20ZM75.8925 27.5363H86.1074L85.554 28.116H76.4459L75.8925 27.5363ZM70.6809 29.8551H71.8333V32.1739H69.3333V31.7301L70.6809 29.8551ZM90.1666 29.8551H91.319L92.6666 31.7301V32.1739H90.1666V29.8551Z" fill="black"/>
<circle cx="81" cy="68" r="20" fill="#8FB6CF"/>
<path d="M81 54.6667C76.4069 54.6667 72.6666 57.2686 72.6666 60.4638V62.2029H69.3333C68.8743 62.2029 68.5 62.4633 68.5 62.7826V63.942H67.6666V65.1015H68.5V75.5363C68.5 75.5997 68.513 75.6608 68.5423 75.7197L69.2682 77.2301L67.7545 79.3338C67.6959 79.4153 67.6666 79.5036 67.6666 79.5942V80.7536C67.6666 81.0729 68.041 81.3334 68.5 81.3334H72.6666C73.1256 81.3334 73.5 81.0729 73.5 80.7536V75.5363H73.8873L75.3066 77.0172C75.4596 77.178 75.72 77.2754 76 77.2754H86C86.2799 77.2754 86.5403 77.178 86.6933 77.0172L88.1126 75.5363H88.5V80.7536C88.5 81.0729 88.8743 81.3334 89.3333 81.3334H93.5C93.9589 81.3334 94.3333 81.0729 94.3333 80.7536V79.5942C94.3333 79.5036 94.304 79.4153 94.2454 79.3338L92.7317 77.2301L93.4576 75.7197C93.4869 75.6608 93.5 75.5997 93.5 75.5363V65.1015H94.3333V63.942H93.5V62.7826C93.5 62.4633 93.1256 62.2029 92.6666 62.2029H89.3333V60.4638C89.3333 57.2686 85.5931 54.6667 81 54.6667ZM81 55.8261C84.6914 55.8261 87.6666 57.8959 87.6666 60.4638V62.2029H83.5V58.7247C83.5 58.4054 83.1256 58.1449 82.6666 58.1449H79.3333C78.8743 58.1449 78.5 58.4054 78.5 58.7247V59.8841H74.3886C74.7988 57.5924 77.5918 55.8261 81 55.8261ZM80.1666 59.3044H81.8333V62.2029H80.1666V59.3044ZM85.1666 60.4638C84.7076 60.4638 84.3333 60.7242 84.3333 61.0435C84.3333 61.3628 84.7076 61.6232 85.1666 61.6232C85.6256 61.6232 86 61.3628 86 61.0435C86 60.7242 85.6256 60.4638 85.1666 60.4638ZM74.3333 61.0435H78.5V62.2029H74.3333V61.0435ZM70.1666 63.3623H71.8333V76.6957H70.7656L70.1666 75.4434V63.3623ZM73.5 63.3623H88.5V74.3768H87.8099C87.761 74.3723 87.7155 74.3678 87.6666 74.3678V73.2174H86V74.3768H83.5V67.4203C83.5 67.101 83.1256 66.8406 82.6666 66.8406H79.3333C78.8743 66.8406 78.5 67.101 78.5 67.4203V74.3768H74.4472C74.4049 74.3723 74.3658 74.37 74.3235 74.37C74.2845 74.37 74.2487 74.3723 74.2096 74.3768H73.5V63.3623ZM90.1666 63.3623H91.8333V75.4434L91.2343 76.6957H90.1666V63.3623ZM75.1666 64.5218V65.6812H86.8333V64.5218H75.1666ZM80.1666 68H81.8333V74.3768H80.1666V68ZM75.8925 75.5363H86.1074L85.554 76.116H76.4459L75.8925 75.5363ZM70.6809 77.8551H71.8333V80.1739H69.3333V79.7301L70.6809 77.8551ZM90.1666 77.8551H91.319L92.6666 79.7301V80.1739H90.1666V77.8551Z" fill="black"/>
<circle cx="81" cy="116" r="20" fill="#8FB6CF"/>
<path d="M81 102.667C76.4069 102.667 72.6666 105.269 72.6666 108.464V110.203H69.3333C68.8743 110.203 68.5 110.463 68.5 110.783V111.942H67.6666V113.101H68.5V123.536C68.5 123.6 68.513 123.661 68.5423 123.72L69.2682 125.23L67.7545 127.334C67.6959 127.415 67.6666 127.504 67.6666 127.594V128.754C67.6666 129.073 68.041 129.333 68.5 129.333H72.6666C73.1256 129.333 73.5 129.073 73.5 128.754V123.536H73.8873L75.3066 125.017C75.4596 125.178 75.72 125.275 76 125.275H86C86.2799 125.275 86.5403 125.178 86.6933 125.017L88.1126 123.536H88.5V128.754C88.5 129.073 88.8743 129.333 89.3333 129.333H93.5C93.9589 129.333 94.3333 129.073 94.3333 128.754V127.594C94.3333 127.504 94.304 127.415 94.2454 127.334L92.7317 125.23L93.4576 123.72C93.4869 123.661 93.5 123.6 93.5 123.536V113.101H94.3333V111.942H93.5V110.783C93.5 110.463 93.1256 110.203 92.6666 110.203H89.3333V108.464C89.3333 105.269 85.5931 102.667 81 102.667ZM81 103.826C84.6914 103.826 87.6666 105.896 87.6666 108.464V110.203H83.5V106.725C83.5 106.405 83.1256 106.145 82.6666 106.145H79.3333C78.8743 106.145 78.5 106.405 78.5 106.725V107.884H74.3886C74.7988 105.592 77.5918 103.826 81 103.826ZM80.1666 107.304H81.8333V110.203H80.1666V107.304ZM85.1666 108.464C84.7076 108.464 84.3333 108.724 84.3333 109.043C84.3333 109.363 84.7076 109.623 85.1666 109.623C85.6256 109.623 86 109.363 86 109.043C86 108.724 85.6256 108.464 85.1666 108.464ZM74.3333 109.043H78.5V110.203H74.3333V109.043ZM70.1666 111.362H71.8333V124.696H70.7656L70.1666 123.443V111.362ZM73.5 111.362H88.5V122.377H87.8099C87.761 122.372 87.7155 122.368 87.6666 122.368V121.217H86V122.377H83.5V115.42C83.5 115.101 83.1256 114.841 82.6666 114.841H79.3333C78.8743 114.841 78.5 115.101 78.5 115.42V122.377H74.4472C74.4049 122.372 74.3658 122.37 74.3235 122.37C74.2845 122.37 74.2487 122.372 74.2096 122.377H73.5V111.362ZM90.1666 111.362H91.8333V123.443L91.2343 124.696H90.1666V111.362ZM75.1666 112.522V113.681H86.8333V112.522H75.1666ZM80.1666 116H81.8333V122.377H80.1666V116ZM75.8925 123.536H86.1074L85.554 124.116H76.4459L75.8925 123.536ZM70.6809 125.855H71.8333V128.174H69.3333V127.73L70.6809 125.855ZM90.1666 125.855H91.319L92.6666 127.73V128.174H90.1666V125.855Z" fill="black"/>
<circle cx="81" cy="164" r="20" fill="#8FB6CF"/>
<path d="M81 150.667C76.4069 150.667 72.6666 153.269 72.6666 156.464V158.203H69.3333C68.8743 158.203 68.5 158.463 68.5 158.783V159.942H67.6666V161.101H68.5V171.536C68.5 171.6 68.513 171.661 68.5423 171.72L69.2682 173.23L67.7545 175.334C67.6959 175.415 67.6666 175.504 67.6666 175.594V176.754C67.6666 177.073 68.041 177.333 68.5 177.333H72.6666C73.1256 177.333 73.5 177.073 73.5 176.754V171.536H73.8873L75.3066 173.017C75.4596 173.178 75.72 173.275 76 173.275H86C86.2799 173.275 86.5403 173.178 86.6933 173.017L88.1126 171.536H88.5V176.754C88.5 177.073 88.8743 177.333 89.3333 177.333H93.5C93.9589 177.333 94.3333 177.073 94.3333 176.754V175.594C94.3333 175.504 94.304 175.415 94.2454 175.334L92.7317 173.23L93.4576 171.72C93.4869 171.661 93.5 171.6 93.5 171.536V161.101H94.3333V159.942H93.5V158.783C93.5 158.463 93.1256 158.203 92.6666 158.203H89.3333V156.464C89.3333 153.269 85.5931 150.667 81 150.667ZM81 151.826C84.6914 151.826 87.6666 153.896 87.6666 156.464V158.203H83.5V154.725C83.5 154.405 83.1256 154.145 82.6666 154.145H79.3333C78.8743 154.145 78.5 154.405 78.5 154.725V155.884H74.3886C74.7988 153.592 77.5918 151.826 81 151.826ZM80.1666 155.304H81.8333V158.203H80.1666V155.304ZM85.1666 156.464C84.7076 156.464 84.3333 156.724 84.3333 157.043C84.3333 157.363 84.7076 157.623 85.1666 157.623C85.6256 157.623 86 157.363 86 157.043C86 156.724 85.6256 156.464 85.1666 156.464ZM74.3333 157.043H78.5V158.203H74.3333V157.043ZM70.1666 159.362H71.8333V172.696H70.7656L70.1666 171.443V159.362ZM73.5 159.362H88.5V170.377H87.8099C87.761 170.372 87.7155 170.368 87.6666 170.368V169.217H86V170.377H83.5V163.42C83.5 163.101 83.1256 162.841 82.6666 162.841H79.3333C78.8743 162.841 78.5 163.101 78.5 163.42V170.377H74.4472C74.4049 170.372 74.3658 170.37 74.3235 170.37C74.2845 170.37 74.2487 170.372 74.2096 170.377H73.5V159.362ZM90.1666 159.362H91.8333V171.443L91.2343 172.696H90.1666V159.362ZM75.1666 160.522V161.681H86.8333V160.522H75.1666ZM80.1666 164H81.8333V170.377H80.1666V164ZM75.8925 171.536H86.1074L85.554 172.116H76.4459L75.8925 171.536ZM70.6809 173.855H71.8333V176.174H69.3333V175.73L70.6809 173.855ZM90.1666 173.855H91.319L92.6666 175.73V176.174H90.1666V173.855Z" fill="black"/>
<circle cx="81" cy="212" r="20" fill="#8FB6CF"/>
<path d="M81 198.667C76.4069 198.667 72.6666 201.269 72.6666 204.464V206.203H69.3333C68.8743 206.203 68.5 206.463 68.5 206.783V207.942H67.6666V209.101H68.5V219.536C68.5 219.6 68.513 219.661 68.5423 219.72L69.2682 221.23L67.7545 223.334C67.6959 223.415 67.6666 223.504 67.6666 223.594V224.754C67.6666 225.073 68.041 225.333 68.5 225.333H72.6666C73.1256 225.333 73.5 225.073 73.5 224.754V219.536H73.8873L75.3066 221.017C75.4596 221.178 75.72 221.275 76 221.275H86C86.2799 221.275 86.5403 221.178 86.6933 221.017L88.1126 219.536H88.5V224.754C88.5 225.073 88.8743 225.333 89.3333 225.333H93.5C93.9589 225.333 94.3333 225.073 94.3333 224.754V223.594C94.3333 223.504 94.304 223.415 94.2454 223.334L92.7317 221.23L93.4576 219.72C93.4869 219.661 93.5 219.6 93.5 219.536V209.101H94.3333V207.942H93.5V206.783C93.5 206.463 93.1256 206.203 92.6666 206.203H89.3333V204.464C89.3333 201.269 85.5931 198.667 81 198.667ZM81 199.826C84.6914 199.826 87.6666 201.896 87.6666 204.464V206.203H83.5V202.725C83.5 202.405 83.1256 202.145 82.6666 202.145H79.3333C78.8743 202.145 78.5 202.405 78.5 202.725V203.884H74.3886C74.7988 201.592 77.5918 199.826 81 199.826ZM80.1666 203.304H81.8333V206.203H80.1666V203.304ZM85.1666 204.464C84.7076 204.464 84.3333 204.724 84.3333 205.043C84.3333 205.363 84.7076 205.623 85.1666 205.623C85.6256 205.623 86 205.363 86 205.043C86 204.724 85.6256 204.464 85.1666 204.464ZM74.3333 205.043H78.5V206.203H74.3333V205.043ZM70.1666 207.362H71.8333V220.696H70.7656L70.1666 219.443V207.362ZM73.5 207.362H88.5V218.377H87.8099C87.761 218.372 87.7155 218.368 87.6666 218.368V217.217H86V218.377H83.5V211.42C83.5 211.101 83.1256 210.841 82.6666 210.841H79.3333C78.8743 210.841 78.5 211.101 78.5 211.42V218.377H74.4472C74.4049 218.372 74.3658 218.37 74.3235 218.37C74.2845 218.37 74.2487 218.372 74.2096 218.377H73.5V207.362ZM90.1666 207.362H91.8333V219.443L91.2343 220.696H90.1666V207.362ZM75.1666 208.522V209.681H86.8333V208.522H75.1666ZM80.1666 212H81.8333V218.377H80.1666V212ZM75.8925 219.536H86.1074L85.554 220.116H76.4459L75.8925 219.536ZM70.6809 221.855H71.8333V224.174H69.3333V223.73L70.6809 221.855ZM90.1666 221.855H91.319L92.6666 223.73V224.174H90.1666V221.855Z" fill="black"/>
<circle cx="81" cy="260" r="20" fill="#8FB6CF"/>
<path d="M81 246.667C76.4069 246.667 72.6666 249.269 72.6666 252.464V254.203H69.3333C68.8743 254.203 68.5 254.463 68.5 254.783V255.942H67.6666V257.101H68.5V267.536C68.5 267.6 68.513 267.661 68.5423 267.72L69.2682 269.23L67.7545 271.334C67.6959 271.415 67.6666 271.504 67.6666 271.594V272.754C67.6666 273.073 68.041 273.333 68.5 273.333H72.6666C73.1256 273.333 73.5 273.073 73.5 272.754V267.536H73.8873L75.3066 269.017C75.4596 269.178 75.72 269.275 76 269.275H86C86.2799 269.275 86.5403 269.178 86.6933 269.017L88.1126 267.536H88.5V272.754C88.5 273.073 88.8743 273.333 89.3333 273.333H93.5C93.9589 273.333 94.3333 273.073 94.3333 272.754V271.594C94.3333 271.504 94.304 271.415 94.2454 271.334L92.7317 269.23L93.4576 267.72C93.4869 267.661 93.5 267.6 93.5 267.536V257.101H94.3333V255.942H93.5V254.783C93.5 254.463 93.1256 254.203 92.6666 254.203H89.3333V252.464C89.3333 249.269 85.5931 246.667 81 246.667ZM81 247.826C84.6914 247.826 87.6666 249.896 87.6666 252.464V254.203H83.5V250.725C83.5 250.405 83.1256 250.145 82.6666 250.145H79.3333C78.8743 250.145 78.5 250.405 78.5 250.725V251.884H74.3886C74.7988 249.592 77.5918 247.826 81 247.826ZM80.1666 251.304H81.8333V254.203H80.1666V251.304ZM85.1666 252.464C84.7076 252.464 84.3333 252.724 84.3333 253.043C84.3333 253.363 84.7076 253.623 85.1666 253.623C85.6256 253.623 86 253.363 86 253.043C86 252.724 85.6256 252.464 85.1666 252.464ZM74.3333 253.043H78.5V254.203H74.3333V253.043ZM70.1666 255.362H71.8333V268.696H70.7656L70.1666 267.443V255.362ZM73.5 255.362H88.5V266.377H87.8099C87.761 266.372 87.7155 266.368 87.6666 266.368V265.217H86V266.377H83.5V259.42C83.5 259.101 83.1256 258.841 82.6666 258.841H79.3333C78.8743 258.841 78.5 259.101 78.5 259.42V266.377H74.4472C74.4049 266.372 74.3658 266.37 74.3235 266.37C74.2845 266.37 74.2487 266.372 74.2096 266.377H73.5V255.362ZM90.1666 255.362H91.8333V267.443L91.2343 268.696H90.1666V255.362ZM75.1666 256.522V257.681H86.8333V256.522H75.1666ZM80.1666 260H81.8333V266.377H80.1666V260ZM75.8925 267.536H86.1074L85.554 268.116H76.4459L75.8925 267.536ZM70.6809 269.855H71.8333V272.174H69.3333V271.73L70.6809 269.855ZM90.1666 269.855H91.319L92.6666 271.73V272.174H90.1666V269.855Z" fill="black"/>
<circle cx="81" cy="308" r="20" fill="#8FB6CF"/>
<path d="M81 294.667C76.4069 294.667 72.6666 297.269 72.6666 300.464V302.203H69.3333C68.8743 302.203 68.5 302.463 68.5 302.783V303.942H67.6666V305.101H68.5V315.536C68.5 315.6 68.513 315.661 68.5423 315.72L69.2682 317.23L67.7545 319.334C67.6959 319.415 67.6666 319.504 67.6666 319.594V320.754C67.6666 321.073 68.041 321.333 68.5 321.333H72.6666C73.1256 321.333 73.5 321.073 73.5 320.754V315.536H73.8873L75.3066 317.017C75.4596 317.178 75.72 317.275 76 317.275H86C86.2799 317.275 86.5403 317.178 86.6933 317.017L88.1126 315.536H88.5V320.754C88.5 321.073 88.8743 321.333 89.3333 321.333H93.5C93.9589 321.333 94.3333 321.073 94.3333 320.754V319.594C94.3333 319.504 94.304 319.415 94.2454 319.334L92.7317 317.23L93.4576 315.72C93.4869 315.661 93.5 315.6 93.5 315.536V305.101H94.3333V303.942H93.5V302.783C93.5 302.463 93.1256 302.203 92.6666 302.203H89.3333V300.464C89.3333 297.269 85.5931 294.667 81 294.667ZM81 295.826C84.6914 295.826 87.6666 297.896 87.6666 300.464V302.203H83.5V298.725C83.5 298.405 83.1256 298.145 82.6666 298.145H79.3333C78.8743 298.145 78.5 298.405 78.5 298.725V299.884H74.3886C74.7988 297.592 77.5918 295.826 81 295.826ZM80.1666 299.304H81.8333V302.203H80.1666V299.304ZM85.1666 300.464C84.7076 300.464 84.3333 300.724 84.3333 301.043C84.3333 301.363 84.7076 301.623 85.1666 301.623C85.6256 301.623 86 301.363 86 301.043C86 300.724 85.6256 300.464 85.1666 300.464ZM74.3333 301.043H78.5V302.203H74.3333V301.043ZM70.1666 303.362H71.8333V316.696H70.7656L70.1666 315.443V303.362ZM73.5 303.362H88.5V314.377H87.8099C87.761 314.372 87.7155 314.368 87.6666 314.368V313.217H86V314.377H83.5V307.42C83.5 307.101 83.1256 306.841 82.6666 306.841H79.3333C78.8743 306.841 78.5 307.101 78.5 307.42V314.377H74.4472C74.4049 314.372 74.3658 314.37 74.3235 314.37C74.2845 314.37 74.2487 314.372 74.2096 314.377H73.5V303.362ZM90.1666 303.362H91.8333V315.443L91.2343 316.696H90.1666V303.362ZM75.1666 304.522V305.681H86.8333V304.522H75.1666ZM80.1666 308H81.8333V314.377H80.1666V308ZM75.8925 315.536H86.1074L85.554 316.116H76.4459L75.8925 315.536ZM70.6809 317.855H71.8333V320.174H69.3333V319.73L70.6809 317.855ZM90.1666 317.855H91.319L92.6666 319.73V320.174H90.1666V317.855Z" fill="black"/>
<circle cx="142" cy="116" r="20" fill="#8FB6CF"/>
<path d="M142 102.667C137.407 102.667 133.667 105.269 133.667 108.464V110.203H130.333C129.874 110.203 129.5 110.463 129.5 110.783V111.942H128.667V113.101H129.5V123.536C129.5 123.6 129.513 123.661 129.542 123.72L130.268 125.23L128.755 127.334C128.696 127.415 128.667 127.504 128.667 127.594V128.754C128.667 129.073 129.041 129.333 129.5 129.333H133.667C134.126 129.333 134.5 129.073 134.5 128.754V123.536H134.887L136.307 125.017C136.46 125.178 136.72 125.275 137 125.275H147C147.28 125.275 147.54 125.178 147.693 125.017L149.113 123.536H149.5V128.754C149.5 129.073 149.874 129.333 150.333 129.333H154.5C154.959 129.333 155.333 129.073 155.333 128.754V127.594C155.333 127.504 155.304 127.415 155.245 127.334L153.732 125.23L154.458 123.72C154.487 123.661 154.5 123.6 154.5 123.536V113.101H155.333V111.942H154.5V110.783C154.5 110.463 154.126 110.203 153.667 110.203H150.333V108.464C150.333 105.269 146.593 102.667 142 102.667ZM142 103.826C145.691 103.826 148.667 105.896 148.667 108.464V110.203H144.5V106.725C144.5 106.405 144.126 106.145 143.667 106.145H140.333C139.874 106.145 139.5 106.405 139.5 106.725V107.884H135.389C135.799 105.592 138.592 103.826 142 103.826ZM141.167 107.304H142.833V110.203H141.167V107.304ZM146.167 108.464C145.708 108.464 145.333 108.724 145.333 109.043C145.333 109.363 145.708 109.623 146.167 109.623C146.626 109.623 147 109.363 147 109.043C147 108.724 146.626 108.464 146.167 108.464ZM135.333 109.043H139.5V110.203H135.333V109.043ZM131.167 111.362H132.833V124.696H131.766L131.167 123.443V111.362ZM134.5 111.362H149.5V122.377H148.81C148.761 122.372 148.715 122.368 148.667 122.368V121.217H147V122.377H144.5V115.42C144.5 115.101 144.126 114.841 143.667 114.841H140.333C139.874 114.841 139.5 115.101 139.5 115.42V122.377H135.447C135.405 122.372 135.366 122.37 135.324 122.37C135.284 122.37 135.249 122.372 135.21 122.377H134.5V111.362ZM151.167 111.362H152.833V123.443L152.234 124.696H151.167V111.362ZM136.167 112.522V113.681H147.833V112.522H136.167ZM141.167 116H142.833V122.377H141.167V116ZM136.893 123.536H147.107L146.554 124.116H137.446L136.893 123.536ZM131.681 125.855H132.833V128.174H130.333V127.73L131.681 125.855ZM151.167 125.855H152.319L153.667 127.73V128.174H151.167V125.855Z" fill="black"/>
<circle cx="142" cy="164" r="20" fill="#8FB6CF"/>
<path d="M142 150.667C137.407 150.667 133.667 153.269 133.667 156.464V158.203H130.333C129.874 158.203 129.5 158.463 129.5 158.783V159.942H128.667V161.101H129.5V171.536C129.5 171.6 129.513 171.661 129.542 171.72L130.268 173.23L128.755 175.334C128.696 175.415 128.667 175.504 128.667 175.594V176.754C128.667 177.073 129.041 177.333 129.5 177.333H133.667C134.126 177.333 134.5 177.073 134.5 176.754V171.536H134.887L136.307 173.017C136.46 173.178 136.72 173.275 137 173.275H147C147.28 173.275 147.54 173.178 147.693 173.017L149.113 171.536H149.5V176.754C149.5 177.073 149.874 177.333 150.333 177.333H154.5C154.959 177.333 155.333 177.073 155.333 176.754V175.594C155.333 175.504 155.304 175.415 155.245 175.334L153.732 173.23L154.458 171.72C154.487 171.661 154.5 171.6 154.5 171.536V161.101H155.333V159.942H154.5V158.783C154.5 158.463 154.126 158.203 153.667 158.203H150.333V156.464C150.333 153.269 146.593 150.667 142 150.667ZM142 151.826C145.691 151.826 148.667 153.896 148.667 156.464V158.203H144.5V154.725C144.5 154.405 144.126 154.145 143.667 154.145H140.333C139.874 154.145 139.5 154.405 139.5 154.725V155.884H135.389C135.799 153.592 138.592 151.826 142 151.826ZM141.167 155.304H142.833V158.203H141.167V155.304ZM146.167 156.464C145.708 156.464 145.333 156.724 145.333 157.043C145.333 157.363 145.708 157.623 146.167 157.623C146.626 157.623 147 157.363 147 157.043C147 156.724 146.626 156.464 146.167 156.464ZM135.333 157.043H139.5V158.203H135.333V157.043ZM131.167 159.362H132.833V172.696H131.766L131.167 171.443V159.362ZM134.5 159.362H149.5V170.377H148.81C148.761 170.372 148.715 170.368 148.667 170.368V169.217H147V170.377H144.5V163.42C144.5 163.101 144.126 162.841 143.667 162.841H140.333C139.874 162.841 139.5 163.101 139.5 163.42V170.377H135.447C135.405 170.372 135.366 170.37 135.324 170.37C135.284 170.37 135.249 170.372 135.21 170.377H134.5V159.362ZM151.167 159.362H152.833V171.443L152.234 172.696H151.167V159.362ZM136.167 160.522V161.681H147.833V160.522H136.167ZM141.167 164H142.833V170.377H141.167V164ZM136.893 171.536H147.107L146.554 172.116H137.446L136.893 171.536ZM131.681 173.855H132.833V176.174H130.333V175.73L131.681 173.855ZM151.167 173.855H152.319L153.667 175.73V176.174H151.167V173.855Z" fill="black"/>
<circle cx="142" cy="212" r="20" fill="#8FB6CF"/>
<path d="M142 198.667C137.407 198.667 133.667 201.269 133.667 204.464V206.203H130.333C129.874 206.203 129.5 206.463 129.5 206.783V207.942H128.667V209.101H129.5V219.536C129.5 219.6 129.513 219.661 129.542 219.72L130.268 221.23L128.755 223.334C128.696 223.415 128.667 223.504 128.667 223.594V224.754C128.667 225.073 129.041 225.333 129.5 225.333H133.667C134.126 225.333 134.5 225.073 134.5 224.754V219.536H134.887L136.307 221.017C136.46 221.178 136.72 221.275 137 221.275H147C147.28 221.275 147.54 221.178 147.693 221.017L149.113 219.536H149.5V224.754C149.5 225.073 149.874 225.333 150.333 225.333H154.5C154.959 225.333 155.333 225.073 155.333 224.754V223.594C155.333 223.504 155.304 223.415 155.245 223.334L153.732 221.23L154.458 219.72C154.487 219.661 154.5 219.6 154.5 219.536V209.101H155.333V207.942H154.5V206.783C154.5 206.463 154.126 206.203 153.667 206.203H150.333V204.464C150.333 201.269 146.593 198.667 142 198.667ZM142 199.826C145.691 199.826 148.667 201.896 148.667 204.464V206.203H144.5V202.725C144.5 202.405 144.126 202.145 143.667 202.145H140.333C139.874 202.145 139.5 202.405 139.5 202.725V203.884H135.389C135.799 201.592 138.592 199.826 142 199.826ZM141.167 203.304H142.833V206.203H141.167V203.304ZM146.167 204.464C145.708 204.464 145.333 204.724 145.333 205.043C145.333 205.363 145.708 205.623 146.167 205.623C146.626 205.623 147 205.363 147 205.043C147 204.724 146.626 204.464 146.167 204.464ZM135.333 205.043H139.5V206.203H135.333V205.043ZM131.167 207.362H132.833V220.696H131.766L131.167 219.443V207.362ZM134.5 207.362H149.5V218.377H148.81C148.761 218.372 148.715 218.368 148.667 218.368V217.217H147V218.377H144.5V211.42C144.5 211.101 144.126 210.841 143.667 210.841H140.333C139.874 210.841 139.5 211.101 139.5 211.42V218.377H135.447C135.405 218.372 135.366 218.37 135.324 218.37C135.284 218.37 135.249 218.372 135.21 218.377H134.5V207.362ZM151.167 207.362H152.833V219.443L152.234 220.696H151.167V207.362ZM136.167 208.522V209.681H147.833V208.522H136.167ZM141.167 212H142.833V218.377H141.167V212ZM136.893 219.536H147.107L146.554 220.116H137.446L136.893 219.536ZM131.681 221.855H132.833V224.174H130.333V223.73L131.681 221.855ZM151.167 221.855H152.319L153.667 223.73V224.174H151.167V221.855Z" fill="black"/>
</svg>
