<svg width="28" height="27" viewBox="0 0 28 27" fill="none" xmlns="http://www.w3.org/2000/svg">
<path d="M25.7812 9.52344C27.0508 9.71875 27.5391 11.2812 26.6113 12.209L21.4844 17.2383L22.7051 24.3184C22.9004 25.5879 21.5332 26.5645 20.4102 25.9785L14.0625 22.6094L7.66602 25.9785C6.54297 26.5645 5.17578 25.5879 5.37109 24.3184L6.5918 17.2383L1.46484 12.209C0.537109 11.2812 1.02539 9.71875 2.29492 9.52344L9.47266 8.49805L12.6465 2.00391C13.2324 0.832031 14.8926 0.880859 15.4297 2.00391L18.6523 8.49805L25.7812 9.52344ZM18.9453 16.4082L23.877 11.623L17.0898 10.6465L14.0625 4.49414L10.9863 10.6465L4.19922 11.623L9.13086 16.4082L7.95898 23.1465L14.0625 19.9727L20.1172 23.1465L18.9453 16.4082Z" fill="#D9D9D9"/>
</svg>
