<svg width="30" height="30" viewBox="0 0 30 30" fill="none" xmlns="http://www.w3.org/2000/svg">
<path d="M22.4121 9.54688C22.4121 9.79102 22.4121 9.98633 22.4121 10.2305C22.4121 17.0176 17.2852 24.7812 7.86133 24.7812C4.93164 24.7812 2.24609 23.9512 0 22.4863C0.390625 22.5352 0.78125 22.584 1.2207 22.584C3.61328 22.584 5.81055 21.7539 7.56836 20.3867C5.32227 20.3379 3.41797 18.873 2.7832 16.8223C3.125 16.8711 3.41797 16.9199 3.75977 16.9199C4.19922 16.9199 4.6875 16.8223 5.07812 16.7246C2.73438 16.2363 0.976562 14.1855 0.976562 11.6953V11.6465C1.66016 12.0371 2.49023 12.2324 3.32031 12.2812C1.9043 11.3535 1.02539 9.79102 1.02539 8.0332C1.02539 7.05664 1.26953 6.17773 1.70898 5.44531C4.24805 8.52148 8.05664 10.5723 12.3047 10.8164C12.207 10.4258 12.1582 10.0352 12.1582 9.64453C12.1582 6.8125 14.4531 4.51758 17.2852 4.51758C18.75 4.51758 20.0684 5.10352 21.0449 6.12891C22.168 5.88477 23.291 5.44531 24.2676 4.85938C23.877 6.08008 23.0957 7.05664 22.0215 7.69141C23.0469 7.59375 24.0723 7.30078 24.9512 6.91016C24.2676 7.93555 23.3887 8.81445 22.4121 9.54688Z" fill="white" fill-opacity="0.8"/>
</svg>
