<svg width="30" height="30" viewBox="0 0 30 30" fill="none" xmlns="http://www.w3.org/2000/svg">
<path d="M18.5547 6.91016C20.6055 8.96094 21.875 11.6465 21.875 14.5762C21.875 20.5332 16.8945 25.416 10.8887 25.416C9.08203 25.416 7.32422 24.9277 5.71289 24.0977L0 25.5625L1.51367 19.9473C0.585938 18.3359 0.0488281 16.4805 0.0488281 14.5273C0.0488281 8.57031 4.93164 3.6875 10.8887 3.6875C13.8184 3.6875 16.5527 4.85938 18.5547 6.91016ZM10.8887 23.5605C15.8691 23.5605 20.0195 19.5078 20.0195 14.5762C20.0195 12.1348 18.9941 9.88867 17.2852 8.17969C15.5762 6.4707 13.3301 5.54297 10.9375 5.54297C5.95703 5.54297 1.9043 9.5957 1.9043 14.5273C1.9043 16.2363 2.39258 17.8965 3.27148 19.3613L3.51562 19.7031L2.58789 23.0234L6.00586 22.0957L6.29883 22.291C7.71484 23.1211 9.27734 23.5605 10.8887 23.5605ZM15.8691 16.8223C16.1133 16.9688 16.3086 17.0176 16.3574 17.1641C16.4551 17.2617 16.4551 17.7988 16.2109 18.4336C15.9668 19.0684 14.8926 19.6543 14.4043 19.7031C13.5254 19.8496 12.8418 19.8008 11.1328 19.0195C8.39844 17.8477 6.64062 15.1133 6.49414 14.9668C6.34766 14.7715 5.41992 13.502 5.41992 12.1348C5.41992 10.8164 6.10352 10.1816 6.34766 9.88867C6.5918 9.5957 6.88477 9.54688 7.08008 9.54688C7.22656 9.54688 7.42188 9.54688 7.56836 9.54688C7.76367 9.54688 7.95898 9.49805 8.20312 10.0352C8.39844 10.5723 8.98438 11.8906 9.0332 12.0371C9.08203 12.1836 9.13086 12.3301 9.0332 12.5254C8.54492 13.5508 7.95898 13.502 8.25195 13.9902C9.32617 15.7969 10.3516 16.4316 11.9629 17.2129C12.207 17.3594 12.3535 17.3105 12.5488 17.1641C12.6953 16.9688 13.2324 16.334 13.3789 16.0898C13.5742 15.7969 13.7695 15.8457 14.0137 15.9434C14.2578 16.041 15.5762 16.6758 15.8691 16.8223Z" fill="white" fill-opacity="0.8"/>
</svg>
